<svg width="729.052" height="785.041" xmlns="http://www.w3.org/2000/svg">

 <g>
  <title>background</title>
  <rect fill="none" id="canvas_background" height="787.041" width="731.052" y="-1" x="-1"/>
 </g>
 <g>
  <title>Layer 1</title>
  <g id="Group_7">
   <path fill="#373e44" d="m602.072003,282.766003c-3.95,-0.581 -8.6,0.736 -9.875,2.9a1.9,1.9 0 0 0 -0.155,1.355c0.194,2.478 -0.465,4.376 -4.027,6.312c-2.13,1.317 -4.57,1.2 -6.545,1.046a9.105,9.105 0 0 0 -3.292,0.155a10.31,10.31 0 0 0 -4.1,2.362a23.589,23.589 0 0 1 -3.524,2.4c-2.982,1.355 -4.221,1.355 -5.925,0.852a5.227,5.227 0 0 0 -1.549,-0.232c-8.752,0.5 -15.258,2.633 -16.807,5.577a7.765,7.765 0 0 0 -1.007,3.214c-0.387,3.292 -2.052,4.3 -5.848,5.383a16.234,16.234 0 0 1 -3.563,0.736a8.457,8.457 0 0 0 -4.066,1.355a21.067,21.067 0 0 0 -2.517,2.362c-2.595,2.788 -6.312,6.661 -10.417,6.661a6.793,6.793 0 0 1 -3.021,-0.736c-5.034,-2.517 -3.408,-6.506 -2.633,-8.442a9.863,9.863 0 0 0 0.775,-2.595c0.31,-2.091 -0.736,-3.253 -4.221,-4.376a2.757,2.757 0 0 1 -1.743,1.394a2.782,2.782 0 0 0 -0.736,-0.077a2.681,2.681 0 0 1 -2.595,-2.091c-0.077,-0.387 -0.116,-0.736 -0.155,-1.084a2.935,2.935 0 0 1 -1.007,-1.162a3.526,3.526 0 0 1 -0.116,-2.517a2.66,2.66 0 0 1 2.711,-1.626a19.792,19.792 0 0 1 1.626,-1.82a5.842,5.842 0 0 0 1.394,-1.743c0.155,-1.007 -0.465,-2.13 -1.162,-3.33c-1.162,-1.975 -2.9,-5 -0.929,-8.287c1.394,-2.091 4.027,-2.517 6.428,-2.788a10.845,10.845 0 0 1 -3.485,-2.9c-5.034,-0.968 -7.28,0.62 -11.153,3.253c-1.046,0.736 -2.207,1.472 -3.447,2.246c-3.447,2.052 -7.319,2.827 -11.076,3.563c-4.26,0.852 -8.4,1.626 -11.192,4.415a6.522,6.522 0 0 0 -0.31,1.007a6.93,6.93 0 0 1 -2.324,4.1c-4.144,2.75 -10.456,1.51 -14.716,0.62c-5.77,-0.658 -8.636,-1.975 -11.773,-4.492a0.29,0.29 0 0 0 -0.194,0.039c-2.362,0.155 -4.453,0.31 -6.274,1.588c-1.007,0.813 -1.51,2.324 -2.091,4.027c-0.736,2.169 -1.549,4.57 -3.873,6.119a3.2,3.2 0 0 1 -1.472,0.387a2.686,2.686 0 0 1 -2.052,-0.929a17.915,17.915 0 0 1 -2.595,-4.608c-0.7,-1.665 -1.433,-3.369 -2.362,-3.95a4.764,4.764 0 0 0 -2.788,-0.968a8.981,8.981 0 0 1 -7.048,-3.911c-0.852,-1.162 -1.588,-2.207 -2.246,-3.137c-3.873,-5.46 -4.957,-6.971 -13.051,-8.016a37.1,37.1 0 0 0 -13.593,-0.349a46.529,46.529 0 0 0 -5.151,1.355a30.217,30.217 0 0 1 -8.481,1.781a18.253,18.253 0 0 1 -7.939,-2.207c-2.13,-1.046 -3.021,-1.433 -5.189,0.5c1.975,2.517 2.246,6.235 2.556,9.643a28.954,28.954 0 0 0 0.658,5.073c4.027,13.322 -4.879,21.8 -13.477,28.7c-1.549,1.123 -2.9,2.324 -4.3,3.485a47.5,47.5 0 0 1 -7.2,5.46a25.422,25.422 0 0 1 -3.642,1.433c-0.349,0.116 -0.736,0.271 -1.123,0.387l0.039,0c6.893,0.581 14.522,1.394 18.046,4.221c3.834,3.137 3.64,6.545 3.447,9.6a20.845,20.845 0 0 0 -0.039,3.137a6.5,6.5 0 0 1 -0.271,1.859c-0.039,0.194 -0.116,0.387 -0.155,0.581a2.813,2.813 0 0 0 0.7,0.426a6.55,6.55 0 0 1 3.137,2.556c2.052,3.8 0.775,6.738 -0.7,9.023c2.943,0.387 6.08,0.387 7.823,-0.349c0.465,-0.155 1.355,-0.465 1.975,-0.7a21.667,21.667 0 0 1 0.62,-4.453c1.51,-6.893 5.848,-10.185 12.547,-9.681a10.484,10.484 0 0 1 3.989,1.239c0.232,0.116 0.542,0.232 0.658,0.31c0,-0.039 0.232,-0.077 0.658,-0.387c0.929,-0.581 1.82,-2.478 2.595,-4.144a19.226,19.226 0 0 1 3.214,-5.305a58.557,58.557 0 0 1 14.057,-9.6c6.235,-2.75 19.131,-1.7 25.288,0.232c8.21,2.362 17,8.249 24.049,12.973l2.982,1.975c3.873,2.556 6.816,4.492 9.8,8.365a41.415,41.415 0 0 1 4.26,-1.82c2.362,-0.852 4.841,-1.743 6,-3.059a8.634,8.634 0 0 0 1.781,-2.827c0.968,-2.13 2.13,-4.8 6.893,-6c9.681,-2.285 14.871,3.563 18.937,8.287a28.6,28.6 0 0 0 5.848,5.654c2.672,1.82 8.055,1.7 12.47,1.626c1.975,-0.039 3.873,-0.077 5.5,0.039a23.422,23.422 0 0 1 4.3,0.077c4.1,0.155 8.829,0.31 12.044,-0.426c2.478,-0.465 13.941,-7.9 15.568,-12.857c0.349,-0.968 0.039,-1.278 -0.155,-1.51a2.555,2.555 0 0 1 -0.62,-2.633a2.614,2.614 0 0 1 2.014,-1.82a23.459,23.459 0 0 0 3.369,-1.162c3.214,-1.239 6.854,-2.633 9.953,-2.014a11.152,11.152 0 0 1 3.6,1.549a7.573,7.573 0 0 0 2.866,1.2a38.425,38.425 0 0 0 7.319,0a44.062,44.062 0 0 1 8.752,0a9.914,9.914 0 0 1 1.936,0.426c1.7,-6.622 4.531,-12.276 7.552,-18.162l2.091,-4.1c1.975,-4.221 4.337,-24.63 3.485,-31.252a17.079,17.079 0 0 1 -4.608,-3.253c-1.59,-1.164 -3.061,-2.481 -4.61,-2.713z" id="Path_4"/>
   <path fill="#373e44" d="m613.650987,241.483006c0,-0.155 -0.039,-0.31 -0.039,-0.5a2.041,2.041 0 0 0 0.039,0.5z" id="Path_5"/>
   <path fill="#373e44" d="m613.918994,242.297003c-0.077,-0.194 -0.155,-0.349 -0.232,-0.542l0,0c0.079,0.155 0.157,0.349 0.232,0.542z" id="Path_6"/>
   <path fill="#373e44" d="m602.80699,243.187993a7.318,7.318 0 0 0 -2.014,-0.5c-1.355,-0.077 -2.788,-0.039 -4.221,0a24.007,24.007 0 0 1 -8.946,-0.813a22.765,22.765 0 0 1 -4.066,-1.781c-1.278,-0.7 -1.355,-0.813 -3.6,0c-0.852,0.271 -1.588,0.542 -2.324,0.852a29.9,29.9 0 0 1 -5.77,1.743a2.691,2.691 0 0 1 -2.595,2.13l-2.788,0a2.637,2.637 0 0 1 -2.633,-2.246a62.644,62.644 0 0 1 -10.3,-2.014l-1.317,-0.349a27.626,27.626 0 0 1 -3.1,-1.2a21.876,21.876 0 0 0 -4.337,-1.549c0.116,0.077 0.077,0.426 0.116,0.852a7.146,7.146 0 0 0 2.169,4.376a2.664,2.664 0 0 1 -1.007,4.8a14.275,14.275 0 0 0 -1.51,0.387a3.085,3.085 0 0 1 0.116,0.581a2.77,2.77 0 0 1 -1.2,2.517c-1.394,0.891 -1.781,2.362 -2.246,4.918c-0.658,3.447 -1.549,8.132 -7.59,10.65a2.642,2.642 0 0 1 -2.285,-0.116a2.7,2.7 0 0 1 -1.355,-1.82a23.859,23.859 0 0 1 -0.5,-4.531c-0.194,-3.369 -0.349,-4.415 -2.556,-5.422c-3.911,-1.433 -9.759,1.433 -13.477,4.8a2.611,2.611 0 0 1 -2.362,0.62a2.655,2.655 0 0 1 -1.9,-1.549c-1.007,-2.246 -4.144,-4.3 -6.738,-5.151a11.09,11.09 0 0 0 -3.33,-1.007c-2.866,-0.542 -4.453,-1.626 -4.8,-5.848l0,-0.194a2.566,2.566 0 0 1 0.581,-1.665c0.194,-0.465 0.465,-1.2 0.658,-1.82a15.912,15.912 0 0 1 0.929,-2.13l0,-0.04a18.181,18.181 0 0 1 5.383,-4.957c1.9,-1.317 3.718,-2.595 4.027,-3.989a14.45,14.45 0 0 0 -2.052,-5.538c-3.563,-2.362 -15.1,1.781 -18.743,4.763a21.7,21.7 0 0 0 -3.214,4.26c-1.859,2.75 -3.718,5.577 -6.39,6.893c-3.834,2.13 -7.861,1.355 -11.85,0.658a8.287,8.287 0 0 0 -1.588,-0.077a7.268,7.268 0 0 1 -3.989,-0.581a4.058,4.058 0 0 1 -2.285,-3.718c-0.31,-0.271 -0.581,-0.542 -0.929,-0.852a23.544,23.544 0 0 0 -2.866,-2.4c-2.052,0.658 -2.4,2.711 -1.859,8.52c0.232,2.556 0.465,4.8 -0.271,6.506c-0.775,1.781 -2.75,3.137 -5.848,5.267c-1.007,0.658 -2.556,1.743 -3.64,2.595a0.191,0.191 0 0 1 0.116,0.039a2.7,2.7 0 0 1 2.091,1.7a2.767,2.767 0 0 1 -0.426,2.672c-1.278,1.549 -0.232,3.253 4.918,8.016c2.788,2.595 5.383,5.034 6.39,7.9c1.936,6.119 -1.433,8.868 -4.144,11.114c-0.349,0.271 -0.7,0.62 -1.046,0.891a2.8,2.8 0 0 1 1.355,1.859a2.049,2.049 0 0 1 -0.039,1.084a16.251,16.251 0 0 0 6.467,1.7c0.077,0 0.581,0.116 0.658,0.116c2.711,0.542 8.365,1.7 10.456,0.31c0,0 0.077,-0.232 0.271,-1.046a7.281,7.281 0 0 1 1.743,-3.524c3.95,-3.95 9.023,-4.957 13.941,-5.925c3.408,-0.658 6.661,-1.278 9.255,-2.866c1.162,-0.7 2.246,-1.433 3.214,-2.13c4.337,-2.943 8.4,-5.731 16.613,-3.8a2.707,2.707 0 0 1 1.975,1.936a11.155,11.155 0 0 0 2.091,1.433c1.9,1.123 5.073,3.059 4.221,6.506c-0.542,2.672 -3.524,3.021 -6.119,3.292a12.429,12.429 0 0 0 -3.214,0.62a21.28,21.28 0 0 0 1.278,2.44c1.046,1.781 2.324,4.027 1.82,6.777c-0.232,2.052 -1.7,3.524 -2.866,4.763c3.679,1.239 8.481,3.8 7.668,9.991a13.244,13.244 0 0 1 -1.123,4.066a5.791,5.791 0 0 0 -0.465,1.278a3.129,3.129 0 0 1 0.542,0.271c1.9,0.968 5.151,-2.672 7.164,-4.763a20.012,20.012 0 0 1 3.447,-3.137a13.373,13.373 0 0 1 6.235,-2.169a13.478,13.478 0 0 0 2.75,-0.581a12.782,12.782 0 0 0 2.324,-0.852c-0.155,-1.046 0.077,-2.75 1.355,-5.189c3.253,-6.119 13.438,-7.939 21.415,-8.4l0.077,0a9.539,9.539 0 0 1 3.137,0.426c0.387,0.077 0.774,0.077 2.169,-0.542a16.991,16.991 0 0 0 2.556,-1.781a15.805,15.805 0 0 1 5.964,-3.292a13.3,13.3 0 0 1 5.073,-0.349c1.665,0.077 2.788,0.155 3.524,-0.349a4.947,4.947 0 0 0 1.472,-0.968a6.489,6.489 0 0 1 0.774,-4.686c2.827,-4.763 10.069,-6.39 15.336,-5.577c3.1,0.465 5.344,2.362 7.319,4.1a13.159,13.159 0 0 0 1.2,0.968a2.181,2.181 0 0 1 1.317,-0.116l0,0a21.086,21.086 0 0 1 1.433,-4.337a9.279,9.279 0 0 0 0.929,-2.788a5.872,5.872 0 0 0 -1.123,-2.9c-1.007,-1.743 -2.4,-4.144 -1.549,-7.552a13.939,13.939 0 0 1 2.091,-4.608c0.891,-1.355 1.278,-1.9 0.658,-4.221c-0.62,-3.059 -1.394,-3.253 -5.151,-4.415l-1.046,-0.31a2.57,2.57 0 0 1 -1.859,-2.13a2.606,2.606 0 0 1 1.084,-2.633a1.712,1.712 0 0 0 0.891,-1.472c0,-0.039 -0.039,-0.077 -0.039,-0.116a6.9,6.9 0 0 1 -0.658,-1.588c-2.09,1.136 -4.026,0.478 -5.498,0.013z" id="Path_7"/>
   <path fill="#373e44" d="m587.781993,347.361003a40.591,40.591 0 0 1 -8.4,-0.039a12.685,12.685 0 0 1 -4.918,-1.9a6.414,6.414 0 0 0 -1.82,-0.891c-1.743,-0.271 -4.8,0.891 -7.048,1.743a8.424,8.424 0 0 0 -1.046,0.426a7.5,7.5 0 0 1 -0.349,3.408c-2.44,7.4 -16.032,15.8 -19.6,16.459a36.279,36.279 0 0 1 -7.668,0.658c-1.9,0 -3.8,-0.077 -5.615,-0.116c-1.51,-0.039 -2.982,-0.116 -4.26,-0.116c-1.626,-0.077 -3.369,-0.039 -5.228,0c-5.422,0.116 -11.5,0.194 -15.568,-2.556a33.307,33.307 0 0 1 -6.932,-6.661c-3.911,-4.492 -6.932,-8.094 -13.554,-6.545c-2.207,0.542 -2.517,1.239 -3.292,2.943a13.044,13.044 0 0 1 -2.75,4.337c-1.975,2.207 -5.073,3.33 -8.094,4.415c-1.123,0.426 -2.13,0.813 -3.1,1.239a31.222,31.222 0 0 1 2.672,5.886c3.911,0.891 7.358,3.33 10.65,5.693a35.23,35.23 0 0 0 6.428,3.95a34.77,34.77 0 0 1 6.506,4.027a24.775,24.775 0 0 0 5.925,3.6a8.992,8.992 0 0 0 3.408,0.039a12.775,12.775 0 0 1 6,0.31c4.26,1.007 7.048,4.647 9.449,7.9a24.3,24.3 0 0 0 4.531,5.034a66.143,66.143 0 0 0 5.848,3.64c7.435,4.376 13.322,8.094 15.258,12.237l0.7,-0.116a11.38,11.38 0 0 0 4.376,-1.162c1.975,-1.123 1.975,-1.859 1.936,-4.027c0,-2.014 -0.078,-4.763 2.13,-7.358a12.241,12.241 0 0 1 4.879,-3.137a9.087,9.087 0 0 0 3.8,-2.362a49.551,49.551 0 0 0 2.827,-5.151a29.231,29.231 0 0 1 5.383,-8.365c1.781,-1.859 3.95,-3.756 6.274,-5.77c4.027,-3.485 8.171,-7.048 9.991,-10.65a55.643,55.643 0 0 0 2.324,-7.048c1.394,-4.918 2.943,-10.379 6.119,-13.864c-0.155,-0.039 -0.31,-0.077 -0.542,-0.116a41.822,41.822 0 0 0 -7.63,0.006z" id="Path_8"/>
   <path fill="#373e44" d="m314.803003,356.383005a7.642,7.642 0 0 1 -0.039,5.886c-3.253,7.242 -18.279,9.759 -23.662,9.294l-2.246,-0.194c-3.253,-0.271 -4.8,-0.426 -7.9,1.007a31.728,31.728 0 0 0 -3.1,1.781a27.857,27.857 0 0 1 -7.861,3.64l-1.549,0.349c-3.369,0.813 -7.59,1.82 -10.882,1.046a12.876,12.876 0 0 1 -5.809,-4.1a9.344,9.344 0 0 0 -2.75,-2.362c-2.13,-0.852 -4.453,-0.349 -7.048,0.232a18.792,18.792 0 0 1 -7.242,0.658c-3.834,-0.581 -5.422,-2.9 -6.545,-4.608a4.082,4.082 0 0 1 -0.271,-0.426c-0.039,0.077 -0.077,0.194 -0.116,0.271a21.848,21.848 0 0 1 -3.679,5.383c-1.2,1.355 -3.33,2.324 -5.577,3.33c-1.317,0.62 -3.524,1.588 -3.95,2.207c-0.5,1.7 1.317,3.6 3.911,6.119c1.936,1.859 3.8,3.6 4.221,5.77c0.891,2.943 -1.046,7.358 -3.718,12.78a32.65,32.65 0 0 0 -1.588,3.6c-1.936,5.809 -3.95,9.681 -8.984,13.515c-3.563,2.788 -8.868,6.157 -13.515,6.157a16.6,16.6 0 0 1 -4.725,-0.852a12.994,12.994 0 0 0 -3.718,-0.581a3.29,3.29 0 0 0 -2.556,1.433a10.674,10.674 0 0 1 -2.13,1.936a51.814,51.814 0 0 1 -12.005,7.59a20.639,20.639 0 0 1 -7.9,1.588c-4.57,0 -8.442,-1.626 -12.431,-3.292c-1.355,-0.542 -2.788,-1.123 -4.3,-1.7c-7.668,-2.672 -7.048,-7.629 -6.622,-10.921c0.349,-2.595 0.465,-4.1 -1.084,-5.886c-2.943,-3.214 -13.67,-3.292 -18.124,-0.929c0.077,0.31 0.116,0.581 0.194,0.891c0.929,3.911 1.123,7.009 -4.027,11.734a16.047,16.047 0 0 1 -7.126,3.408a13.207,13.207 0 0 0 -4.57,1.9a9.151,9.151 0 0 0 -1.7,3.447a23.539,23.539 0 0 1 -1.47,3.472a5.143,5.143 0 0 1 -2.943,2.1a11.593,11.593 0 0 0 -0.775,3.679a13.446,13.446 0 0 1 -2.4,7.4a23.783,23.783 0 0 1 -3.447,3.292c-1.936,1.588 -5.112,4.26 -4.608,5.654c0.426,0.813 4.415,0.426 6.157,0.194c1.084,-0.116 2.091,-0.194 2.866,-0.194c5.422,0 9.953,1.859 14.29,3.718a2.69,2.69 0 0 1 1.626,2.052a2.593,2.593 0 0 1 -0.891,2.44l-1.239,1.046c-2.595,2.246 -3.64,3.214 -3.447,5.422c0.039,0.387 0.349,0.7 0.891,1.355c2.052,2.4 2.711,4.841 -0.31,9.449a32,32 0 0 1 -3.873,4.957c-2.75,3.021 -4.066,4.57 -2.788,9.255a7.715,7.715 0 0 0 1.162,1.936a10.837,10.837 0 0 1 2.44,5.5a9.227,9.227 0 0 1 -0.194,3.447a4.266,4.266 0 0 0 -0.194,1.588a14.636,14.636 0 0 0 1.355,6.39a34.151,34.151 0 0 1 1.317,3.756a13.922,13.922 0 0 1 0.813,3.6a6.538,6.538 0 0 1 1.9,2.827c1.162,3.563 -1.046,7.358 -2.827,10.417c-0.155,0.271 -0.31,0.5 -0.465,0.775a6.438,6.438 0 0 1 3.485,4.686a6.649,6.649 0 0 1 -3.214,6.971a5.488,5.488 0 0 1 -3.1,0.581a41.472,41.472 0 0 0 0.155,4.841c0.116,1.317 0.194,2.595 0.194,3.756c-0.116,1.781 -0.31,3.408 -0.5,5.034c-0.426,3.64 -0.891,7.435 -0.232,10.456c0.852,3.176 2.285,4.221 4.879,6.157c0.7,0.5 1.472,1.084 2.246,1.743c3.873,3.021 4.608,4.725 5.538,7.706a24.218,24.218 0 0 0 0.852,2.517l0.658,2.091c1.472,4.647 4.1,13.012 -2.207,16.962c-0.116,2.517 -0.581,6.816 -1.975,9.643a14.578,14.578 0 0 1 0.542,5.577c3.369,-2.13 7.358,-3.33 11.231,-4.531c4.647,-1.355 9.41,-2.827 13.051,-5.731c4.608,-3.95 9.449,-8.094 15.916,-11.153c1.239,-0.542 2.324,-1.007 3.292,-1.433c4.725,-1.975 6.854,-2.9 9.914,-7.706a7.75,7.75 0 0 0 0.968,-1.743c0.62,-1.472 1.317,-1.9 3.292,-3.214a17.661,17.661 0 0 1 6.351,-2.014a16.156,16.156 0 0 0 4.647,-1.278l2.13,-1.123c3.369,-1.82 4.647,-2.285 10.611,-1.665a37.694,37.694 0 0 0 6.08,0.116c4.879,-0.116 9.875,-0.31 13.167,1.665c5,2.246 4.027,5.925 3.176,8.907c-0.155,0.62 -0.349,1.317 -0.5,2.052a2.846,2.846 0 0 1 -1.472,1.859a2.713,2.713 0 0 1 -2.324,0a6.075,6.075 0 0 0 -1.743,-0.271a15.187,15.187 0 0 0 0.62,2.827a16.967,16.967 0 0 1 0.813,3.718c3.756,-0.426 7.164,-0.31 10.8,2.362a7.491,7.491 0 0 1 2.478,1.82a3.072,3.072 0 0 0 1.626,0.929c-0.039,-0.039 0.039,-0.039 0.62,-0.31l0.813,-0.349c-0.155,-2.556 -0.039,-5.654 3.369,-7.552c4.182,-2.324 12.508,0.31 15.839,1.588a9.333,9.333 0 0 1 4.647,3.834c0.542,0.736 0.7,0.968 1.084,1.123a12.212,12.212 0 0 0 4.26,1.549c2.556,0.465 4.492,1.084 7.629,5.228c4.1,5 7.745,5.189 13.786,5.5c1.781,0.077 3.64,0.194 5.654,0.426a40.789,40.789 0 0 1 11.5,2.982a26.242,26.242 0 0 0 8.713,2.246c7.319,0.736 10.146,5.46 12.857,10.069c0.465,0.774 0.929,1.549 1.394,2.362a70.139,70.139 0 0 1 5.615,7.668a5.5,5.5 0 0 1 0.31,0.7c0.194,0.7 0.387,1.549 0.62,2.517c0.31,1.394 0.968,4.376 1.51,5.034a27.219,27.219 0 0 0 5.886,-0.039c0.658,-0.232 1.472,-1.433 2.246,-2.556a7.365,7.365 0 0 1 3.214,-3.214c5.654,-2.052 21.3,3.292 25.288,5.305c11.579,4.957 25.714,12.586 26.489,20.6a7.611,7.611 0 0 1 -2.44,6.312a6.268,6.268 0 0 1 0.271,1.7c-0.155,2.827 -2.44,4.725 -4.26,6.274a14.567,14.567 0 0 0 -1.9,1.781a5.806,5.806 0 0 0 -0.813,1.626a9.908,9.908 0 0 1 -2.246,3.911a9.408,9.408 0 0 1 -3.6,2.014a6.4,6.4 0 0 0 -1.626,0.775c0,0.077 -0.039,0.929 -0.077,1.9a8.691,8.691 0 0 1 -0.968,4.221a6.606,6.606 0 0 1 -3.33,2.4a3.881,3.881 0 0 0 -1.433,0.736c-4.879,3.021 -6.235,4.531 -6.738,7.4a3.082,3.082 0 0 1 -0.426,0.968a67.148,67.148 0 0 1 0.039,13.941a6.942,6.942 0 0 1 0.929,0.465c1.975,1.355 2.362,3.8 2.672,5.886c0.194,1.239 0.426,2.711 0.929,3.176a9.442,9.442 0 0 0 2.827,1.2c2.672,0.736 6.738,1.936 7.668,7.629a9.7,9.7 0 0 1 -0.155,3.059c4.221,1.162 7.358,4.57 10.185,7.706a37.84,37.84 0 0 0 3.911,3.95a30.411,30.411 0 0 0 3.756,2.169c0.232,0.116 0.5,0.271 0.774,0.387c1.162,-6.312 5.267,-11.54 9.72,-16.265c1.084,-1.084 2.246,-2.517 3.447,-3.989a42.356,42.356 0 0 1 6.235,-6.738a9.68,9.68 0 0 1 3.8,-1.239a8.768,8.768 0 0 0 2.324,-0.581a26.275,26.275 0 0 0 -1.743,-3.214a14.926,14.926 0 0 1 -1.9,-4.3c-0.813,-4.608 0.039,-9.914 0.891,-14.987c0.349,-1.936 0.62,-3.834 0.852,-5.615a14.949,14.949 0 0 1 2.285,-8.094c0.426,-0.813 0.891,-1.7 1.433,-2.827c1.51,-3.873 1.588,-8.094 1.665,-12.547a76.213,76.213 0 0 1 0.5,-8.326a47.8,47.8 0 0 1 4.415,-11.269l0.7,-1.472c2.091,-4.415 1.7,-7.552 1.084,-12.354l-0.271,-2.169c-1.51,-8.481 -1.472,-17.078 -1.433,-25.4l0.039,-4.26a27.876,27.876 0 0 0 -0.7,-5.073c-0.271,-1.317 -0.5,-2.711 -0.7,-4.027c-0.62,-4.918 0.271,-9.527 1.162,-13.98a49.97,49.97 0 0 0 1.278,-9.72c0,-6.583 -0.542,-10.843 -3.485,-16.149a6.654,6.654 0 0 0 -1.317,-1.7c-1.743,-1.51 -1.433,-2.866 -0.968,-4.957l0.232,-1.162a22.956,22.956 0 0 1 2.091,-4.453a11.153,11.153 0 0 0 1.743,-4.027a22.257,22.257 0 0 0 0.581,-5a20.9,20.9 0 0 1 0.116,-2.169a2.7,2.7 0 0 1 -0.077,-2.44a57.341,57.341 0 0 0 2.13,-5.77c1.549,-4.918 3.33,-10.456 7.009,-13.322c3.756,-2.9 7.242,-1.82 9.759,-1.084a8.388,8.388 0 0 0 4.221,0.581c2.13,-0.232 4.647,-1.7 6.816,-3.021a31.937,31.937 0 0 1 4.647,-2.44c4.182,-1.781 4.376,-2.556 5.538,-6.816c0.271,-0.968 0.542,-2.091 0.929,-3.33c3.137,-11.076 10.456,-20.951 17.543,-30.477a169.017,169.017 0 0 0 11.656,-17.117a19,19 0 0 1 -8.249,2.091c-0.426,0 -0.852,-0.039 -1.239,-0.039c-5.5,-0.465 -10.03,-4.066 -13.554,-10.688c-0.387,-0.852 -0.929,-1.936 -1.588,-3.292c-7.474,-15.181 -9.1,-20.37 -7.4,-23.119c2.014,-3.64 6.7,-2.285 10.107,-1.317a16.654,16.654 0 0 0 3.834,0.813c1.433,-0.387 1.588,-0.542 1.665,-4.182a32.2,32.2 0 0 1 0.426,-5.189c0.116,-1.278 0.426,-2.943 0.7,-4.8c0.968,-5.809 2.285,-13.709 0.271,-17.543c-0.542,-1.162 -1.355,-1.433 -3.447,-2.014a11.856,11.856 0 0 1 -6.274,-3.369c-2.478,-3.059 -2.091,-7.087 -1.82,-10.3c0.155,-1.549 0.387,-4.144 -0.155,-4.686c0,-0.039 -0.5,-0.465 -2.4,-0.232a2.33,2.33 0 0 1 -2.44,-1.084a2.854,2.854 0 0 1 -0.31,-2.672a7.223,7.223 0 0 0 0.349,-3.6a2.786,2.786 0 0 1 -0.542,-1.781c0.039,-0.155 0.039,-0.271 0.077,-0.426a26,26 0 0 0 -3.756,-7.28c-2.9,-4.337 -5.422,-6 -9.6,-8.791l-2.982,-1.975c-6.777,-4.531 -15.181,-10.146 -22.655,-12.315c-5.228,-1.588 -16.73,-2.556 -21.57,-0.465a54.272,54.272 0 0 0 -12.431,8.52a16.28,16.28 0 0 0 -2.207,3.756c-1.162,2.478 -2.362,5 -4.57,6.39c-2.982,1.936 -4.957,1.278 -6.661,0.349a5.609,5.609 0 0 0 -2.014,-0.658c-3.6,-0.31 -5.77,0.581 -6.854,5.577a16.569,16.569 0 0 0 -0.465,3.369c-0.155,3.524 -1.626,4.3 -5.5,5.615c-4.3,1.743 -11.463,0.7 -14.909,-0.31a2.76,2.76 0 0 1 -1.7,-1.588a2.592,2.592 0 0 1 0.155,-2.324a23.623,23.623 0 0 1 1.472,-2.324c1.665,-2.4 2.014,-3.137 1.317,-4.492a4.939,4.939 0 0 1 -0.775,-0.349a5.969,5.969 0 0 1 -3.563,-3.6c-0.542,-0.929 -0.194,-2.4 0.077,-3.563c0.039,-1.626 0.116,-2.9 0.155,-4.1c0.155,-2.788 0.155,-3.718 -1.472,-5.073c-2.478,-2.014 -11.579,-2.75 -15.064,-3.021c-1.123,-0.077 -2.014,-0.194 -2.478,-0.232a2.775,2.775 0 0 1 -1.278,-0.581a7.416,7.416 0 0 1 -0.929,2.44c-0.737,2.536 -5.81,8.732 -10.961,11.714z" id="Path_9"/>
   <path fill="#373e44" d="m105.334,10.987l-1.084,4.182a11.117,11.117 0 0 1 -3.8,5.77a10.675,10.675 0 0 1 -3.718,1.626a8.535,8.535 0 0 0 -2.246,0.852s-0.039,0.077 -0.077,0.077a11,11 0 0 0 1.239,0.542a17.413,17.413 0 0 1 3.176,1.7a2.428,2.428 0 0 1 1.2,-1.51a2.479,2.479 0 0 1 3.408,1.2c2.091,4.144 -0.387,6.119 -1.549,7.087a3.677,3.677 0 0 0 -1.2,1.278a6.88,6.88 0 0 0 -1.046,3.253a22.217,22.217 0 0 1 -0.542,2.9a39.55,39.55 0 0 1 -2.943,5.422a32.447,32.447 0 0 0 -2.4,4.376a18.357,18.357 0 0 0 -1.394,4.841a19.033,19.033 0 0 1 -1.859,6.2a11.923,11.923 0 0 1 -2.943,3.485c-1.239,1.162 -1.859,1.781 -1.975,2.788a7.638,7.638 0 0 0 0.31,2.788a12.469,12.469 0 0 1 0.426,4.57c0,1.239 -1.859,7.668 -2.9,9.178c-0.891,1.82 -2.633,3.1 -4.182,4.26a14.051,14.051 0 0 0 -2.866,2.517a19.37,19.37 0 0 0 -2.014,4.763a23.592,23.592 0 0 1 -3.176,7.087a13.55,13.55 0 0 1 -3.179,2.756a8.1,8.1 0 0 0 -1.936,1.588a17.551,17.551 0 0 0 -1.859,5.383a25.155,25.155 0 0 1 -1.9,5.925a52.03,52.03 0 0 1 -7.28,10.611c-1.51,1.859 -3.059,3.718 -4.415,5.77a45.4,45.4 0 0 0 -3.021,5.112c-2.589,4.843 -5.533,10.301 -12.31,12.663a12.189,12.189 0 0 1 -5.305,0.581a14.4,14.4 0 0 0 -2.4,0.077c-1.2,0.542 -1.975,1.781 -3.214,3.756a28.593,28.593 0 0 1 -1.781,2.633c-2.9,4.1 -6.738,6.583 -10.495,8.946a38.612,38.612 0 0 0 -8.52,6.583a23.629,23.629 0 0 0 -2.324,3.563c-0.426,0.7 -0.813,1.317 -1.239,1.936c0.7,0.116 1.433,0.271 2.285,0.465c1.781,0.349 3.485,0.7 4.453,0.813a18.067,18.067 0 0 0 2.091,-0.387a15.329,15.329 0 0 1 5,-0.349a10.79,10.79 0 0 1 5.693,2.672a10.541,10.541 0 0 0 2.13,1.472c1.743,0.929 3.176,0.891 5.151,0.852a23.7,23.7 0 0 1 4.8,0.232c6.157,0.813 10.069,3.95 12.508,10.03c4.221,10.107 3.369,23.158 2.556,34.7c-0.31,4.453 -0.62,8.752 -0.62,12.7l0,2.205c0.039,10.107 0.077,18.976 -7.668,26.295c2.478,1.781 5.189,3.8 6.854,6.351a20.116,20.116 0 0 1 2.052,4.531a12.485,12.485 0 0 0 0.929,2.362a9.786,9.786 0 0 0 3.137,3.6c0.775,0.62 1.588,1.317 2.672,2.362c2.44,2.13 4.1,5.693 5.731,9.139c3.524,7.319 5,8.675 7.668,7.435c1.472,-0.62 2.788,-1.278 4.066,-1.859c4.57,-2.169 8.868,-4.221 12.857,-2.478c2.866,1.278 4.879,4.182 6.351,9.139c0.155,0.465 0.5,1.394 0.968,2.556c4.26,10.65 5.925,16.575 3.33,19.518a5.7,5.7 0 0 1 -4.492,2.207c-2.44,-0.194 -3.834,-2.246 -4.686,-3.6c-0.271,-0.349 -0.465,-0.658 -0.658,-0.891a7.631,7.631 0 0 1 -1.665,-1.743a6.02,6.02 0 0 0 -0.775,0.039a36.61,36.61 0 0 0 -8.016,3.64a10.807,10.807 0 0 0 0.039,2.207a13.643,13.643 0 0 1 -0.077,3.059a26.305,26.305 0 0 1 -3.524,11.114a12.082,12.082 0 0 1 -2.672,2.633a5.82,5.82 0 0 0 -0.968,0.813c0.349,0.155 1.626,0.581 2.517,0.891c2.4,0.852 5.46,1.9 7.319,4.57a18.122,18.122 0 0 1 2.788,8.249c0.5,3.679 0.658,4.57 5.46,4.57a2.719,2.719 0 0 1 2.711,2.711a16.042,16.042 0 0 0 0.968,4.841a25.456,25.456 0 0 1 1.162,5.731c3.137,2.75 4.376,6.622 5.46,10.069c0.891,2.866 1.743,5.577 3.524,6.854c1.2,0.891 2.207,0.891 4.182,0.775a13.107,13.107 0 0 1 4.221,0.155a21.582,21.582 0 0 1 3.95,2.13a19.016,19.016 0 0 0 3.214,1.781c-0.116,-0.542 -0.232,-1.084 -0.349,-1.665a29.655,29.655 0 0 1 -0.658,-5.577a23.1,23.1 0 0 1 1.355,-7.164a18.567,18.567 0 0 0 1.084,-6.622a25.038,25.038 0 0 0 -1.665,-5a27.765,27.765 0 0 1 -2.169,-7.552a20.767,20.767 0 0 1 0,-4.1a16.293,16.293 0 0 0 0.039,-3.059a10.779,10.779 0 0 0 -0.542,-1.7a9.278,9.278 0 0 1 -0.852,-5.034c-0.039,-2.362 1.123,-4.686 2.13,-6.738a29.347,29.347 0 0 0 1.433,-3.369c0.155,-1.046 0.349,-2.207 0.5,-3.33c0.852,-5.383 1.433,-8.946 5.848,-14.677a37.989,37.989 0 0 0 5.5,-11.385c0.581,-2.595 0.968,-5.693 1.394,-8.984c1.239,-10.456 2.672,-22.345 14.29,-26.295a98.994,98.994 0 0 1 9.836,-2.633c5.383,-1.239 10.456,-2.4 14.445,-4.8a71.809,71.809 0 0 0 17.5,-14.135a141.038,141.038 0 0 1 14.645,-14.637c8.055,-5.383 18.472,-1.162 22.964,0.62c8.713,3.6 14.638,1.239 23.584,-2.4l0.968,-0.387c6.157,-2.517 6.312,-2.866 5.654,-11.618a20.6,20.6 0 0 1 0.194,-2.9l0,0a13.966,13.966 0 0 0 -1.317,-1.084a12.008,12.008 0 0 0 -3.8,-1.9a20.324,20.324 0 0 1 -5.189,-2.595a2.744,2.744 0 0 1 -0.542,-3.756a3.074,3.074 0 0 1 0.852,-0.736c-2.75,-7.319 -2.246,-13.825 -1.665,-21.183l0.271,-3.6c0.31,-4.221 2.169,-6.854 3.8,-9.178a38.033,38.033 0 0 0 2.13,-3.33c2.595,-4.492 2.478,-10.417 2.4,-16.11c0,-2.014 -0.039,-3.989 0.077,-5.848c0.194,-4.1 -0.813,-6.661 -2.091,-9.836a60.049,60.049 0 0 1 -2.014,-5.693c-1.355,-5.848 0.62,-9.178 2.75,-12.7c0.5,-0.891 1.084,-1.82 1.665,-2.9c1.123,-2.207 2.207,-4.686 3.253,-7.164c2.943,-6.893 6,-14.058 11.811,-18.472a31.831,31.831 0 0 1 5.267,-2.362a25.31,25.31 0 0 0 4.376,-1.975a57.612,57.612 0 0 0 7.009,-6.312a71.371,71.371 0 0 1 5.305,-5.034c1.317,-1.007 2.556,-1.9 3.756,-2.75c4.182,-2.982 7.319,-5.189 8.287,-9.759a2.534,2.534 0 0 1 -1.82,-2.362a2.66,2.66 0 0 1 1.7,-2.633a3.957,3.957 0 0 0 -0.813,-1.355c-2.44,-2.478 -8.984,-2.13 -14.755,-1.781c-3.989,0.232 -7.706,0.465 -10.843,-0.116c-7.28,-1.046 -17.388,-2.517 -23.971,-8.326c-5.383,-4.415 -7.009,-4.8 -14.019,-3.214c-2.633,0.5 -5.189,1.162 -7.706,1.781c-2.982,0.736 -5.964,1.51 -9.217,2.091c-0.658,0.116 -1.394,0.194 -2.169,0.271a14.133,14.133 0 0 0 -4.415,0.891a10.04,10.04 0 0 0 -1.743,2.866c-0.813,1.7 -1.781,3.679 -3.718,4.763c-3.524,2.052 -6.583,0.658 -8.752,-0.387c-2.014,-0.968 -3.059,-1.355 -4.608,-0.581c-1.123,0.581 -2.517,2.556 -3.756,4.337a22.444,22.444 0 0 1 -4.182,4.841a68.873,68.873 0 0 1 -6.351,4.182c-1.2,0.736 -2.4,1.433 -3.524,2.207a2.807,2.807 0 0 1 -3.137,-0.077a2.728,2.728 0 0 1 -0.929,-2.982c0.7,-2.362 0.232,-4.841 -0.31,-7.435c-0.542,-2.556 -1.084,-5.228 -0.465,-8.016c0.736,-4.841 4.608,-7.009 7.706,-8.791c2.13,-1.2 4.1,-2.362 5.112,-4.144c2.014,-3.834 -0.349,-7.164 -4.144,-11.85c-0.542,-0.658 -1.084,-1.355 -1.549,-1.936a13.057,13.057 0 0 1 -2.788,-6.312a14.534,14.534 0 0 0 -1.007,-3.33a4.633,4.633 0 0 0 -2.362,-2.595a14.422,14.422 0 0 1 -3.33,-2.556a31.177,31.177 0 0 1 -3.756,-4.3c-1.9,-2.44 -2.9,-3.756 -7.126,-4.725a32.2,32.2 0 0 0 -3.369,-0.581a16.118,16.118 0 0 1 -6.041,-1.278a9.686,9.686 0 0 1 -4.725,-4.8a4.743,4.743 0 0 0 -0.968,-1.433c-3.563,-2.943 -11.192,-4.337 -16.73,-5.305c-1.975,-0.349 -3.563,-0.736 -5.267,-1.123c-3.827,-0.944 -8.358,-2.033 -11.959,-1.684c0.193,3.214 -0.62,7.28 -1.356,10.92z" id="Path_10"/>
   <path fill="#373e44" d="m293.347998,92.234c-1.162,0.775 -2.285,1.626 -3.447,2.556c-1.626,1.355 -3.214,2.982 -4.879,4.608a54.107,54.107 0 0 1 -7.861,7.009a30.56,30.56 0 0 1 -5.383,2.517a27.09,27.09 0 0 0 -4.26,1.817c-4.337,3.33 -7.126,9.836 -9.8,16.11c-1.123,2.672 -2.246,5.228 -3.447,7.552c-0.62,1.162 -1.2,2.207 -1.82,3.176c-1.936,3.214 -2.982,5 -2.13,8.6a44.5,44.5 0 0 0 1.82,5.034c1.394,3.524 2.75,6.816 2.44,12.121c-0.077,1.743 -0.039,3.6 -0.039,5.538c0.077,6.157 0.155,13.089 -3.1,18.743a23.348,23.348 0 0 1 -2.44,3.873c-1.472,2.091 -2.595,3.756 -2.788,6.467l-0.31,3.64c-0.62,8.171 -1.123,14.6 2.788,22.19a3.975,3.975 0 0 1 0.155,0.542c0.077,0.039 0.116,0.039 0.194,0.077a16.19,16.19 0 0 1 5.344,2.827c2.711,2.169 3.64,3.176 3.176,6.041a18.9,18.9 0 0 0 -0.116,1.9c0.736,10.146 -0.039,13.128 -9.023,16.807l-0.968,0.387c-9.023,3.679 -16.768,6.854 -27.65,2.4c-5.654,-2.285 -12.857,-4.531 -17.7,-1.317a140.62,140.62 0 0 0 -13.748,13.825a77.035,77.035 0 0 1 -18.9,15.258c-4.686,2.788 -10.417,4.1 -15.955,5.422a95.936,95.936 0 0 0 -9.333,2.478c-8.4,2.866 -9.488,12.082 -10.65,21.841c-0.426,3.292 -0.813,6.661 -1.51,9.72a42.99,42.99 0 0 1 -6.39,13.167c-3.679,4.725 -4.066,7.242 -4.879,12.276c-0.194,1.123 -0.387,2.362 -0.62,3.718a25.787,25.787 0 0 1 -1.82,4.492a11.4,11.4 0 0 0 -1.626,4.8a4.566,4.566 0 0 0 0.542,2.672a17.058,17.058 0 0 1 0.852,2.827a19.509,19.509 0 0 1 0,4.26a16.951,16.951 0 0 0 0,3.137a21.008,21.008 0 0 0 1.82,6.157a31.936,31.936 0 0 1 2.014,6.351a23.754,23.754 0 0 1 -1.317,8.791a20.95,20.95 0 0 0 -1.123,5.615a25.706,25.706 0 0 0 0.62,4.57a31.193,31.193 0 0 1 0.658,5.151c6.661,-1.626 16.5,-1.046 20.68,3.447c3.292,3.718 2.788,7.474 2.44,10.224c-0.426,3.1 -0.542,3.911 3.1,5.151c1.665,0.62 3.137,1.239 4.57,1.82c6,2.517 9.953,4.144 16.3,1.7a46.421,46.421 0 0 0 10.8,-6.932a6.439,6.439 0 0 0 1.394,-1.278a8.685,8.685 0 0 1 5.964,-3.137a13.728,13.728 0 0 1 5.693,0.775a13.581,13.581 0 0 0 3.292,0.62c2.362,0 6.157,-1.859 10.185,-5c3.989,-3.059 5.538,-5.964 7.164,-10.921a44.306,44.306 0 0 1 1.9,-4.26c1.123,-2.285 3.756,-7.668 3.292,-9.139c-0.232,-0.813 -1.7,-2.246 -2.672,-3.176c-2.9,-2.788 -6.893,-6.622 -5.305,-11.656c0.658,-2.711 3.8,-4.1 6.816,-5.46a16.071,16.071 0 0 0 3.834,-2.13a17.352,17.352 0 0 0 2.866,-4.3a20.4,20.4 0 0 1 2.285,-3.718a2.73,2.73 0 0 1 3.447,-0.581a11.658,11.658 0 0 1 3.873,3.989c1.007,1.51 1.433,2.052 2.827,2.285a14.479,14.479 0 0 0 5.305,-0.62c3.137,-0.7 6.545,-1.433 10.34,0.077a13.933,13.933 0 0 1 4.608,3.64a8.663,8.663 0 0 0 3.214,2.556c1.859,0.465 5.577,-0.465 8.287,-1.084l1.51,-0.349a24.157,24.157 0 0 0 6.312,-2.982c1.2,-0.7 2.285,-1.394 3.563,-2.014c4.531,-2.091 7.087,-1.82 10.727,-1.51l2.169,0.194c4.8,0.465 16.459,-2.207 18.24,-6.119a2.346,2.346 0 0 0 -0.155,-2.014a5.871,5.871 0 0 1 -5.267,-3.292a2.691,2.691 0 0 1 1.123,-3.64a2.6,2.6 0 0 1 2.207,-0.116a2.68,2.68 0 0 1 3.292,0.194c0.271,0.271 0.5,0.5 0.736,0.775c3.563,-1.9 8.442,-7.319 9.255,-9.488a4.749,4.749 0 0 0 0.581,-1.781a9.025,9.025 0 0 1 1.433,-4.027c1.7,-2.4 4.686,-3.447 7.28,-4.337a28.939,28.939 0 0 0 2.827,-1.084a45.871,45.871 0 0 0 6.274,-4.8c1.472,-1.278 2.943,-2.517 4.492,-3.718c9.41,-7.513 14.367,-13.709 11.579,-22.887a31.894,31.894 0 0 1 -0.891,-6.157c-0.271,-3.059 -0.465,-6.506 -1.936,-7.2a2.664,2.664 0 0 1 -1.394,-1.7a2.952,2.952 0 0 1 -0.077,-1.162a2.6,2.6 0 0 1 0.736,-2.13c0.31,-0.31 0.581,-0.542 0.852,-0.813a62.541,62.541 0 0 0 4.531,-8.829c0.542,-1.355 1.355,-3.021 2.207,-4.8c1.665,-3.369 3.718,-7.59 3.524,-10.03c-0.116,-2.362 -0.194,-2.362 -2.827,-2.672a15.053,15.053 0 0 1 -4.608,-1.007c-5.305,-2.362 -5.809,-6.854 -6.2,-10.495a22.8,22.8 0 0 0 -0.852,-4.686a2.568,2.568 0 0 1 -0.5,-1.2c-0.039,-0.077 -0.039,-0.155 -0.077,-0.194a2.712,2.712 0 0 1 0.077,-2.556l0,0a21.184,21.184 0 0 0 -0.039,-4.182c-0.31,-0.775 -0.542,-0.852 -1.278,-1.2a7.686,7.686 0 0 1 -3.176,-2.556c-4.415,-5.693 -3.447,-14.909 -2.711,-22.345c0.194,-1.859 0.387,-3.64 0.465,-5.189a108.087,108.087 0 0 0 0,-15.026a25.34,25.34 0 0 0 -2.672,-7.823a27.943,27.943 0 0 1 -2.9,-8.442a23.017,23.017 0 0 1 0.581,-6.506c0.426,-2.052 0.775,-3.679 0.194,-5.577c-0.31,-1.084 -0.5,-1.859 -0.736,-2.556a17.918,17.918 0 0 1 -0.813,-7.552c0.155,-1.046 0.271,-1.859 0.426,-2.556c0.5,-3.1 0.581,-3.563 -1.588,-6.39c-0.658,-0.891 -1.278,-1.665 -1.859,-2.4c-2.13,-2.672 -4.337,-5.422 -5.267,-9.836c-0.31,-1.394 -0.426,-2.44 -0.542,-3.33c-0.31,-2.207 -0.349,-2.517 -2.556,-4.763c-0.7,-0.658 -1.317,-1.123 -1.781,-1.549c-2.324,-1.936 -2.517,-2.556 -3.1,-6.119c-0.852,-4.608 0.775,-8.984 2.285,-13.206c1.355,-3.64 2.711,-7.435 1.7,-9.527c-1.588,-3.369 -11.85,-6.2 -18.9,-6.971c-0.996,6.97 -5.757,10.378 -10.366,13.592z" id="Path_11"/>
   <path fill="#373e44" d="m459.870004,234.746002a2.825,2.825 0 0 1 1.355,2.595c0.581,-0.039 1.084,-0.077 1.626,-0.077a6.3,6.3 0 0 1 1.665,0.194c3.524,0.62 6.2,1.123 8.52,-0.116c1.472,-0.736 3.059,-3.059 4.376,-5.112a28.222,28.222 0 0 1 4.221,-5.383c3.834,-3.176 18.395,-9.759 25.288,-5.112c2.517,1.239 4.8,8.21 4.3,11.076c-0.891,3.524 -3.718,5.538 -6.235,7.319a15.582,15.582 0 0 0 -3.873,3.408c-0.116,0.271 -0.31,0.7 -0.465,1.162a21.212,21.212 0 0 1 -0.852,2.169l0,0.155a0.853,0.853 0 0 0 0.31,0.039a18.489,18.489 0 0 1 4.337,1.317a18.43,18.43 0 0 1 7.823,5.151c4.686,-3.369 11.114,-5.886 16.768,-3.8c4.918,2.285 5.577,5.925 5.809,9.1a14.89,14.89 0 0 0 1.123,-3.873a15.7,15.7 0 0 1 2.13,-6.08a2.991,2.991 0 0 1 0.31,-3.408a9.157,9.157 0 0 1 2.595,-1.82a12.626,12.626 0 0 1 -1.51,-5a6.624,6.624 0 0 1 2.169,-5.5c2.633,-2.13 6.351,-0.465 9.643,0.929a17.976,17.976 0 0 0 2.324,0.929l1.278,0.31c3.447,0.891 10.688,2.75 13.283,1.549a2.729,2.729 0 0 1 2.556,0.194c0.116,0.077 0.155,0.194 0.232,0.271a26.91,26.91 0 0 0 4.725,-1.51c0.813,-0.31 1.627,-0.62 2.517,-0.929c3.873,-1.394 5.5,-0.929 7.9,0.31a18.077,18.077 0 0 0 3.214,1.394a20.1,20.1 0 0 0 7.048,0.542a35.424,35.424 0 0 1 4.957,0.039a15.652,15.652 0 0 1 3.214,0.775c1.626,0.542 1.665,0.542 2.44,-0.116a2.814,2.814 0 0 1 1.278,-0.62a2.613,2.613 0 0 0 -0.775,-1.472a6.341,6.341 0 0 0 -2.827,-1.626c-1.7,-0.658 -4.066,-1.588 -5.305,-4.3a3.39,3.39 0 0 1 -0.232,-1.084l0,-8.008a18.034,18.034 0 0 1 0.155,-4.26c0.194,-1.472 0.387,-3.292 0.039,-4.066a12.006,12.006 0 0 0 -2.207,-2.672a13.337,13.337 0 0 1 -4.221,-6.893a24,24 0 0 1 -0.62,-8.829c0.194,-3.679 0.271,-5.848 -1.51,-7.745a21.373,21.373 0 0 0 -2.711,-1.51a18.43,18.43 0 0 1 -3.989,-2.44a18.056,18.056 0 0 1 -2.246,-2.285c-0.929,-1.046 -2.246,-2.517 -3.059,-2.75c-1.743,-0.7 -4.647,-0.387 -6.932,-0.077l-1.472,0.155a74.3,74.3 0 0 1 -12.508,-0.155a78.593,78.593 0 0 0 -11.269,-0.194a36.525,36.525 0 0 1 -12.741,-0.775c-0.581,-0.039 -1.743,-0.077 -2.943,-0.116c-2.9,-0.077 -5.886,-0.155 -7.978,-1.046a18.54,18.54 0 0 1 -5.809,-4.376c-3.524,-3.369 -5.073,-4.608 -7.939,-3.059a2.635,2.635 0 0 1 -3.176,-0.581a33.441,33.441 0 0 1 -4.8,0.891c-6.622,0.891 -7.823,2.827 -10.688,7.435c-0.929,1.394 -1.9,2.982 -3.137,4.725c-2.4,2.827 -3.989,5.538 -4.453,7.706a19,19 0 0 0 -0.232,2.866c-0.077,2.052 -0.116,4.415 -2.014,6.932a18.443,18.443 0 0 1 -4.066,4.763a13.359,13.359 0 0 0 -3.6,4.453c-0.542,1.355 -0.891,2.478 -1.2,3.524a17.673,17.673 0 0 1 -3.33,6.893a64.773,64.773 0 0 1 -4.066,5.073c-1.317,1.588 -2.711,3.176 -3.873,4.879a16.148,16.148 0 0 1 -4.144,4.26c0.736,0.62 1.51,1.317 2.285,2.014a7.866,7.866 0 0 0 1.194,1.279z" id="Path_12"/>
   <path fill="#373e44" d="m357.827999,248.376998a10,10 0 0 0 3.059,0.581c2.711,0.31 7.242,0.775 7.629,7.668c0.271,3.834 -2.091,8.6 -4.1,12.741c-0.775,1.588 -1.51,3.137 -2.052,4.415c-0.465,1.084 -0.891,2.091 -1.355,3.059a13.146,13.146 0 0 1 4.027,1.394a13.534,13.534 0 0 0 5.693,1.7c1.7,0 4.3,-0.813 6.777,-1.549a49.852,49.852 0 0 1 5.925,-1.549a42.784,42.784 0 0 1 15.3,0.387c9.914,1.278 12.121,3.873 16.575,10.224c0.658,0.891 1.355,1.936 2.207,3.059a3.868,3.868 0 0 0 3.33,1.781a9.526,9.526 0 0 1 5.189,1.859c2.014,1.239 3.137,3.64 4.1,5.886c0.039,-0.077 0.039,-0.194 0.077,-0.271c0.7,-2.091 1.588,-4.725 3.989,-6.622a14.446,14.446 0 0 1 6.506,-2.4a1.961,1.961 0 0 1 0.271,-0.581a23.181,23.181 0 0 1 4.918,-5c2.672,-2.207 3.214,-2.75 2.44,-5.228c-0.542,-1.51 -2.943,-3.718 -5,-5.654c-3.447,-3.253 -8.016,-7.435 -7.048,-12.005a3.986,3.986 0 0 1 -2.285,-2.827c-0.736,-3.33 2.866,-5.77 7.048,-8.558a29.135,29.135 0 0 0 3.95,-2.982a26.42,26.42 0 0 0 -0.232,-3.756c-0.271,-2.595 -0.581,-6.428 0.62,-9.565a2.64,2.64 0 0 1 0.891,-3.447a45.874,45.874 0 0 1 4.066,-2.362c2.517,-1.355 4.027,-2.169 5.615,-4.57c1.317,-1.9 2.75,-3.6 4.182,-5.344c1.317,-1.588 2.711,-3.176 3.834,-4.841a12.127,12.127 0 0 0 2.517,-5.189a34.06,34.06 0 0 1 1.394,-4.066a18.14,18.14 0 0 1 4.879,-6.274a15.164,15.164 0 0 0 3.253,-3.718c1.046,-1.394 1.084,-2.285 1.123,-4.144a17.2,17.2 0 0 1 0.349,-3.834c0.891,-3.95 3.485,-7.59 5.5,-9.953c1.046,-1.472 1.975,-2.943 2.827,-4.3c3.137,-5 5.422,-8.636 14.561,-9.914c0.658,-0.077 1.2,-0.155 1.665,-0.232a42.22,42.22 0 0 1 -3.485,-2.788c-2.4,-2.4 -5.693,-3.6 -9.217,-4.879c-4.763,-1.743 -10.185,-3.679 -13.012,-9.139l-0.891,-1.781c-2.246,-4.57 -3.6,-7.319 -7.552,-10.688l-1.626,-1.239a102.753,102.753 0 0 1 -12.857,-10.456c-10.224,-10.572 -19.634,-15.955 -33.42,-22.151a98.263,98.263 0 0 1 -13.011,-7.971c-5.228,-3.6 -10.65,-7.319 -16.5,-9.372c-1.975,-0.658 -4.1,-1.394 -6.235,-2.169c-3.33,-1.162 -6.7,-2.324 -10.069,-3.408a9.187,9.187 0 0 0 -7.28,0.077a25.851,25.851 0 0 1 -4.066,1.046a17.532,17.532 0 0 1 -5.305,-0.077c-1.626,-0.232 -3.679,-0.465 -4.453,0.077c-0.736,0.5 -0.62,1.743 -0.155,4.492a16.422,16.422 0 0 1 0.349,4.337a2.607,2.607 0 0 1 -1.394,2.052a2.564,2.564 0 0 1 -2.478,0.039a9.914,9.914 0 0 1 -4.453,-5a8.61,8.61 0 0 1 -4.8,-1.394a10.6,10.6 0 0 0 -1.626,-0.813c-5.151,-1.82 -5.151,-1.859 -9.759,1.743l-0.929,0.7a0.038,0.038 0 0 0 -0.039,0.039c1.549,3.989 -0.077,8.636 -1.7,13.128c-1.317,3.563 -2.633,7.242 -2.13,9.991q0.342,2.322 0.462,2.675c0.039,0.077 0.465,0.387 0.813,0.7c0.5,0.426 1.2,1.007 2.052,1.781c3.33,3.33 3.756,4.763 4.182,7.939c0.116,0.775 0.232,1.743 0.465,2.943c0.658,3.137 2.246,5.073 4.182,7.59q0.987,1.162 1.975,2.556c3.408,4.453 3.253,6.661 2.595,10.495c-0.116,0.658 -0.232,1.394 -0.349,2.285a11.4,11.4 0 0 0 0.62,5.46c0.194,0.736 0.465,1.549 0.7,2.595c0.968,3.059 0.387,5.77 -0.077,8.132a17.128,17.128 0 0 0 -0.542,4.918a26,26 0 0 0 2.4,6.7a29.212,29.212 0 0 1 3.176,9.6a108.117,108.117 0 0 1 0,15.839c-0.077,1.549 -0.232,3.447 -0.465,5.422c-0.62,6.428 -1.472,14.483 1.665,18.55a2.37,2.37 0 0 0 1.2,0.929a7.2,7.2 0 0 1 4.066,4.686a21.781,21.781 0 0 1 0.232,5.848c0,0.426 -0.039,0.775 -0.039,1.162a24.739,24.739 0 0 1 1.472,6.622c0.538,3.524 0.77,5.151 3.094,6.158z" id="Path_13"/>
   <path fill="#373e44" d="m540.226999,418.345007c-1.239,-2.595 -8.83,-7.048 -13.051,-9.527c-2.556,-1.549 -4.841,-2.866 -6.274,-3.989a27.469,27.469 0 0 1 -5.654,-6.119c-2.052,-2.75 -4.027,-5.344 -6.583,-5.964a9.019,9.019 0 0 0 -3.95,-0.116a12.45,12.45 0 0 1 -5.809,-0.31a28.483,28.483 0 0 1 -7.28,-4.337a30.006,30.006 0 0 0 -5.383,-3.369a40.956,40.956 0 0 1 -7.474,-4.531c-1.239,-0.852 -2.4,-1.743 -3.679,-2.517a0.535,0.535 0 0 1 0.116,0.155c2.324,2.324 2.052,5.693 1.743,8.984c-0.194,2.478 -0.426,5.073 0.542,6.312c0.775,0.852 1.859,1.162 3.6,1.665c2.207,0.62 5.151,1.394 6.777,4.763c2.9,5.383 1.433,14.019 0.31,20.912c-0.31,1.743 -0.542,3.369 -0.7,4.725a29.071,29.071 0 0 0 -0.349,4.492c-0.077,3.485 -0.155,7.784 -5.809,9.294c-2.13,0.465 -4.3,-0.194 -6.622,-0.852a22.719,22.719 0 0 0 -3.756,-0.852c0.426,3.447 5.654,14.1 7.435,17.736c0.7,1.433 1.278,2.595 1.588,3.292c2.556,4.8 5.577,7.358 9.139,7.706l0.813,0c6.351,0 14.755,-6.545 24.9,-19.44c1.046,-1.123 1.936,-2.246 2.827,-3.369a40.1,40.1 0 0 1 6.39,-6.854c1.084,-0.736 1.975,-1.239 2.827,-1.743c1.975,-1.084 3.408,-1.9 4.531,-3.8a18.828,18.828 0 0 0 1.162,-2.556c0.775,-2.052 1.433,-3.447 4.337,-5.809c0.5,-0.465 1.084,-0.891 1.588,-1.278c0.62,-0.465 1.007,-0.775 1.317,-1.046a2.622,2.622 0 0 1 0.431,-1.658z" id="Path_14"/>
   <path fill="#373e44" d="m614.192987,247.026006a2.042,2.042 0 0 0 0.581,-0.426a2.043,2.043 0 0 1 -0.581,0.426z" id="Path_15"/>
   <path fill="#373e44" d="m398.914999,776.364996c0,-0.465 0.039,-0.929 0.077,-1.355c-0.038,0.426 -0.077,0.852 -0.077,1.355z" id="Path_16"/>
   <path fill="#373e44" d="m405.459989,762.269983c-0.271,0.31 -0.5,0.581 -0.736,0.891c0.232,-0.31 0.503,-0.621 0.736,-0.891z" id="Path_17"/>
   <path fill="#373e44" d="m403.717005,764.361009a10.957,10.957 0 0 0 -0.775,1.084c0.233,-0.348 0.504,-0.735 0.775,-1.084z" id="Path_18"/>
   <path fill="#373e44" d="m613.88301,318.276996c-0.078,0.31 -0.155,0.62 -0.232,0.891c0.077,-0.271 0.155,-0.542 0.232,-0.891z" id="Path_19"/>
   <path fill="#373e44" d="m400.657998,779.889991c0.039,0.155 0.039,0.31 0.077,0.465c-0.037,-0.155 -0.037,-0.345 -0.077,-0.465z" id="Path_20"/>
   <path fill="#373e44" d="m401.005995,782.21399a18.15,18.15 0 0 1 -0.116,2.827a18.154,18.154 0 0 0 0.116,-2.827z" id="Path_21"/>
   <path fill="#373e44" d="m614.309004,316.341007c-0.077,0.31 -0.116,0.581 -0.194,0.852c0.077,-0.271 0.12,-0.581 0.194,-0.852z" id="Path_22"/>
   <path fill="#373e44" d="m617.523008,287.644996a1.179,1.179 0 0 1 -0.31,0.31a2.333,2.333 0 0 0 0.31,-0.31z" id="Path_23"/>
   <path fill="#373e44" d="m617.949992,286.754001a2.687,2.687 0 0 1 -0.194,0.5c0.08,-0.19 0.116,-0.345 0.194,-0.5z" id="Path_24"/>
   <path fill="#373e44" d="m616.82599,288.304003l0.039,-0.039l-0.039,0l0,0.039z" id="Path_25"/>
   <path fill="#373e44" d="m617.98799,285.438003a2.717,2.717 0 0 1 0.039,0.968a2.717,2.717 0 0 0 -0.039,-0.968z" id="Path_26"/>
   <path fill="#373e44" d="m616.323004,302.516002l0,0.077c-0.039,-0.038 0,-0.038 0,-0.077z" id="Path_27"/>
   <path fill="#373e44" d="m616.051985,305.149005z" id="Path_28"/>
   <path fill="#373e44" d="m614.696005,314.327004c-0.039,0.194 -0.077,0.426 -0.116,0.62c0.039,-0.194 0.077,-0.426 0.116,-0.62z" id="Path_29"/>
   <path fill="#373e44" d="m616.594001,288.612999l-0.039,0l0.039,0z" id="Path_30"/>
   <path fill="#373e44" d="m400.000012,770.634024c-0.155,0.426 -0.31,0.852 -0.426,1.278a12.352,12.352 0 0 1 0.426,-1.278z" id="Path_31"/>
   <path fill="#373e44" d="m399.340989,772.76398c-0.116,0.426 -0.194,0.891 -0.271,1.317c0.077,-0.426 0.15,-0.891 0.271,-1.317z" id="Path_32"/>
   <path fill="#373e44" d="m402.206995,766.451973c-0.271,0.387 -0.5,0.775 -0.736,1.162c0.271,-0.387 0.503,-0.772 0.736,-1.162z" id="Path_33"/>
   <path fill="#373e44" d="m399.922008,777.954017c0,0.039 0.039,0.077 0.039,0.116a0.142,0.142 0 0 0 -0.039,-0.116z" id="Path_34"/>
   <path fill="#373e44" d="m400.968009,768.542999a8.52,8.52 0 0 0 -0.581,1.2a11.473,11.473 0 0 1 0.581,-1.2z" id="Path_35"/>
   <path fill="#373e44" d="m400.69699,780.31597a13.15,13.15 0 0 1 0.271,1.9a7.481,7.481 0 0 0 -0.271,-1.9z" id="Path_36"/>
   <path fill="#373e44" d="m399.961,778.070015a8.418,8.418 0 0 1 0.658,1.82a8.416,8.416 0 0 0 -0.658,-1.82z" id="Path_37"/>
   <path fill="#373e44" d="m399.921999,777.953977a11.049,11.049 0 0 0 -1.007,-1.588l0,0a8.466,8.466 0 0 1 1.007,1.588z" id="Path_38"/>
   <path fill="#373e44" d="m389.387997,770.015006a34.373,34.373 0 0 1 -3.911,-3.95c-2.827,-3.137 -5.964,-6.583 -10.185,-7.706a6.062,6.062 0 0 1 -1.588,3.137a6.588,6.588 0 0 1 -2.478,1.51a2.365,2.365 0 0 0 1.162,0.31c3.33,0 6.274,3.214 9.1,6.39a37.431,37.431 0 0 0 4.686,4.608a30.412,30.412 0 0 0 4.531,2.633a19.285,19.285 0 0 1 3.1,1.82a20.623,20.623 0 0 1 0.116,-6.2c-0.271,-0.116 -0.5,-0.271 -0.775,-0.387a27.8,27.8 0 0 1 -3.758,-2.165z" id="Path_39"/>
   <path fill="#373e44" d="m369.638995,760.605027a2.677,2.677 0 0 0 1.51,2.4a6.3,6.3 0 0 0 2.478,-1.51a5.928,5.928 0 0 0 1.588,-3.137a11.685,11.685 0 0 0 -2.9,-0.426a2.652,2.652 0 0 0 -2.676,2.673z" id="Path_40"/>
   <path fill="#373e44" d="m407.43501,760.100975c-0.7,0.736 -1.355,1.472 -1.975,2.169c0.658,-0.739 1.278,-1.433 1.975,-2.169z" id="Path_41"/>
   <path fill="#373e44" d="m399.070013,774.08097c-0.039,0.31 -0.039,0.581 -0.077,0.891c0.039,-0.31 0.039,-0.581 0.077,-0.891z" id="Path_42"/>
   <path fill="#373e44" d="m400.386991,769.74399c-0.116,0.31 -0.271,0.581 -0.387,0.891a6.183,6.183 0 0 1 0.387,-0.891z" id="Path_43"/>
   <path fill="#373e44" d="m401.510009,767.613973c-0.194,0.31 -0.349,0.62 -0.542,0.929c0.155,-0.309 0.348,-0.619 0.542,-0.929z" id="Path_44"/>
   <path fill="#373e44" d="m399.573008,771.874007c-0.077,0.271 -0.155,0.581 -0.232,0.891a7.541,7.541 0 0 1 0.232,-0.891z" id="Path_45"/>
   <path fill="#373e44" d="m402.946985,765.445025c-0.232,0.349 -0.5,0.7 -0.736,1.007c0.228,-0.349 0.461,-0.657 0.736,-1.007z" id="Path_46"/>
   <path fill="#373e44" d="m404.72401,763.160018c-0.349,0.426 -0.7,0.813 -1.007,1.2c0.31,-0.387 0.658,-0.813 1.007,-1.2z" id="Path_47"/>
   <path fill="#373e44" d="m398.914999,776.365977z" id="Path_48"/>
   <path fill="#373e44" d="m393.764991,778.766983a5.252,5.252 0 0 0 0.077,0.775a2.715,2.715 0 0 0 1.7,2.091a4.484,4.484 0 0 0 -1.777,-2.866z" id="Path_49"/>
   <path fill="#373e44" d="m398.914999,776.365977z" id="Path_50"/>
   <path fill="#373e44" d="m393.764987,778.766983a4.484,4.484 0 0 1 1.781,2.866a2.673,2.673 0 0 0 0.968,0.155c0.155,0 0.31,-0.039 0.387,-0.039a2.684,2.684 0 0 0 2.246,-3.1a15.677,15.677 0 0 1 -0.194,-2.324l0,0a15.172,15.172 0 0 0 -5.034,-3.8a19.706,19.706 0 0 0 -0.154,6.242z" id="Path_51"/>
   <path fill="#373e44" d="m614.115007,317.192995c-0.077,0.387 -0.155,0.736 -0.232,1.084c0.08,-0.348 0.155,-0.697 0.232,-1.084z" id="Path_52"/>
   <path fill="#373e44" d="m616.051003,305.149005c-0.387,3.253 -0.852,6.428 -1.355,9.178c0.503,-2.75 0.97,-5.925 1.355,-9.178z" id="Path_53"/>
   <path fill="#373e44" d="m616.283993,302.592994c-0.077,0.852 -0.155,1.7 -0.271,2.556c0.116,-0.852 0.194,-1.704 0.271,-2.556z" id="Path_54"/>
   <path fill="#373e44" d="m616.323004,302.515999a74.545,74.545 0 0 0 0.271,-13.9a77.991,77.991 0 0 1 -0.271,13.9z" id="Path_55"/>
   <path fill="#373e44" d="m614.578986,314.946995c-0.077,0.465 -0.194,0.929 -0.271,1.394c0.078,-0.465 0.195,-0.891 0.271,-1.394z" id="Path_56"/>
   <path fill="#373e44" d="m616.555001,288.613003a1.938,1.938 0 0 0 0.271,-0.31a1.94,1.94 0 0 1 -0.271,0.31z" id="Path_57"/>
   <path fill="#373e44" d="m616.555001,288.419003a0.29,0.29 0 0 0 0.039,0.194l0,0a1.938,1.938 0 0 0 0.271,-0.31l0,0c-0.12,0.039 -0.233,0.039 -0.31,0.116z" id="Path_58"/>
   <path fill="#373e44" d="m614.115004,247.254001a0.491,0.491 0 0 0 0.039,-0.232l-0.039,0a0.244,0.244 0 0 1 0,0.232z" id="Path_59"/>
   <path fill="#373e44" d="m617.213012,287.955007a2.5,2.5 0 0 1 -0.349,0.31a2.5,2.5 0 0 0 0.349,-0.31z" id="Path_60"/>
   <path fill="#373e44" d="m618.025998,286.406005a1.13,1.13 0 0 1 -0.077,0.349a1.129,1.129 0 0 0 0.077,-0.349z" id="Path_61"/>
   <path fill="#373e44" d="m613.922007,242.336996c0,-0.039 0,-0.039 -0.039,-0.039a0.038,0.038 0 0 1 0.039,0.039z" id="Path_62"/>
   <path fill="#373e44" d="m617.754988,287.219002c-0.077,0.116 -0.155,0.271 -0.232,0.387a3.408,3.408 0 0 0 0.232,-0.387z" id="Path_63"/>
   <path fill="#373e44" d="m613.92201,242.335003c0,-0.039 0,-0.039 -0.039,-0.039c-0.078,-0.194 -0.155,-0.349 -0.232,-0.542a2.021,2.021 0 0 0 0.271,0.581z" id="Path_64"/>
   <path fill="#373e44" d="m614.386998,242.801003a2.629,2.629 0 0 1 -0.465,-0.465l0,0a2.63,2.63 0 0 0 0.465,0.465z" id="Path_66"/>
   <path fill="#373e44" d="m613.65101,241.716007l0,0z" id="Path_67"/>
   <path fill="#373e44" d="m613.611987,240.980998c0,-0.31 0.039,-0.7 0.077,-1.162c-0.038,0.465 -0.077,0.852 -0.077,1.162z" id="Path_68"/>
   <path fill="#373e44" d="m613.921998,242.336003z" id="Path_70"/>
  </g>
  <ellipse ry="4.074072" rx="4.074072" id="svg_2" cy="314.915663" cx="599.732944" stroke-width="1.5" stroke="#ffffff" fill="#fff"/>
  <ellipse ry="4.074072" rx="4.074072" id="svg_3" cy="261.582373" cx="601.551124" stroke-width="1.5" stroke="#ffffff" fill="#fff"/>
  <ellipse ry="4.074072" rx="4.074072" id="svg_4" cy="200.976363" cx="582.763261" stroke-width="1.5" stroke="#ffffff" fill="#fff"/>
  <ellipse ry="4.074072" rx="4.074072" id="svg_5" cy="102.188553" cx="167.006016" stroke-width="1.5" stroke="#ffffff" fill="#fff"/>
  <text xml:space="preserve" text-anchor="start" font-family="Helvetica, Arial, sans-serif" font-size="14" id="svg_9" y="124.762612" x="137.120278" stroke-width="0" stroke="#ffffff" fill="#ffffff">São Luíz</text>
  <text xml:space="preserve" text-anchor="start" font-family="Helvetica, Arial, sans-serif" font-size="14" id="svg_11" y="204" x="593" stroke-width="0" stroke="#ffffff" fill="#ffffff">Natal</text>
  <text xml:space="preserve" text-anchor="start" font-family="Helvetica, Arial, sans-serif" font-size="14" id="svg_12" y="266" x="626" stroke-width="0" stroke="#ffffff" fill="#ffffff">João Pessoal</text>
  <text xml:space="preserve" text-anchor="start" font-family="Helvetica, Arial, sans-serif" font-size="14" id="svg_13" y="318" x="614" stroke-width="0" stroke="#ffffff" fill="#ffffff">Recife</text>
 </g>
</svg>