<svg xmlns="http://www.w3.org/2000/svg" width="618.052" height="785.041" viewBox="0 0 618.052 785.041">
  <g id="Group_7" data-name="Group 7" transform="translate(0 0.007)">
    <path id="Path_4" data-name="Path 4" d="M356.494,74.515c-3.95-.581-8.6.736-9.875,2.9a1.9,1.9,0,0,0-.155,1.355c.194,2.478-.465,4.376-4.027,6.312-2.13,1.317-4.57,1.2-6.545,1.046a9.105,9.105,0,0,0-3.292.155,10.31,10.31,0,0,0-4.1,2.362,23.589,23.589,0,0,1-3.524,2.4c-2.982,1.355-4.221,1.355-5.925.852a5.227,5.227,0,0,0-1.549-.232c-8.752.5-15.258,2.633-16.807,5.577a7.765,7.765,0,0,0-1.007,3.214c-.387,3.292-2.052,4.3-5.848,5.383a16.234,16.234,0,0,1-3.563.736,8.457,8.457,0,0,0-4.066,1.355,21.067,21.067,0,0,0-2.517,2.362c-2.595,2.788-6.312,6.661-10.417,6.661a6.793,6.793,0,0,1-3.021-.736c-5.034-2.517-3.408-6.506-2.633-8.442a9.863,9.863,0,0,0,.775-2.595c.31-2.091-.736-3.253-4.221-4.376a2.757,2.757,0,0,1-1.743,1.394,2.782,2.782,0,0,0-.736-.077,2.681,2.681,0,0,1-2.595-2.091c-.077-.387-.116-.736-.155-1.084a2.935,2.935,0,0,1-1.007-1.162,3.526,3.526,0,0,1-.116-2.517,2.66,2.66,0,0,1,2.711-1.626,19.792,19.792,0,0,1,1.626-1.82,5.842,5.842,0,0,0,1.394-1.743c.155-1.007-.465-2.13-1.162-3.33-1.162-1.975-2.9-5-.929-8.287,1.394-2.091,4.027-2.517,6.428-2.788a10.845,10.845,0,0,1-3.485-2.9c-5.034-.968-7.28.62-11.153,3.253-1.046.736-2.207,1.472-3.447,2.246-3.447,2.052-7.319,2.827-11.076,3.563-4.26.852-8.4,1.626-11.192,4.415a6.522,6.522,0,0,0-.31,1.007,6.93,6.93,0,0,1-2.324,4.1c-4.144,2.75-10.456,1.51-14.716.62-5.77-.658-8.636-1.975-11.773-4.492a.29.29,0,0,0-.194.039c-2.362.155-4.453.31-6.274,1.588-1.007.813-1.51,2.324-2.091,4.027-.736,2.169-1.549,4.57-3.873,6.119a3.2,3.2,0,0,1-1.472.387,2.686,2.686,0,0,1-2.052-.929,17.915,17.915,0,0,1-2.595-4.608c-.7-1.665-1.433-3.369-2.362-3.95a4.764,4.764,0,0,0-2.788-.968,8.981,8.981,0,0,1-7.048-3.911c-.852-1.162-1.588-2.207-2.246-3.137-3.873-5.46-4.957-6.971-13.051-8.016a37.1,37.1,0,0,0-13.593-.349,46.529,46.529,0,0,0-5.151,1.355,30.217,30.217,0,0,1-8.481,1.781,18.253,18.253,0,0,1-7.939-2.207c-2.13-1.046-3.021-1.433-5.189.5,1.975,2.517,2.246,6.235,2.556,9.643a28.954,28.954,0,0,0,.658,5.073c4.027,13.322-4.879,21.8-13.477,28.7-1.549,1.123-2.9,2.324-4.3,3.485a47.5,47.5,0,0,1-7.2,5.46A25.422,25.422,0,0,1,86.613,129c-.349.116-.736.271-1.123.387h.039c6.893.581,14.522,1.394,18.046,4.221,3.834,3.137,3.64,6.545,3.447,9.6a20.845,20.845,0,0,0-.039,3.137,6.5,6.5,0,0,1-.271,1.859c-.039.194-.116.387-.155.581a2.813,2.813,0,0,0,.7.426,6.55,6.55,0,0,1,3.137,2.556c2.052,3.8.775,6.738-.7,9.023,2.943.387,6.08.387,7.823-.349.465-.155,1.355-.465,1.975-.7a21.667,21.667,0,0,1,.62-4.453c1.51-6.893,5.848-10.185,12.547-9.681a10.484,10.484,0,0,1,3.989,1.239c.232.116.542.232.658.31,0-.039.232-.077.658-.387.929-.581,1.82-2.478,2.595-4.144a19.226,19.226,0,0,1,3.214-5.305,58.557,58.557,0,0,1,14.057-9.6c6.235-2.75,19.131-1.7,25.288.232,8.21,2.362,17,8.249,24.049,12.973l2.982,1.975c3.873,2.556,6.816,4.492,9.8,8.365a41.415,41.415,0,0,1,4.26-1.82c2.362-.852,4.841-1.743,6-3.059a8.634,8.634,0,0,0,1.781-2.827c.968-2.13,2.13-4.8,6.893-6,9.681-2.285,14.871,3.563,18.937,8.287a28.6,28.6,0,0,0,5.848,5.654c2.672,1.82,8.055,1.7,12.47,1.626,1.975-.039,3.873-.077,5.5.039a23.422,23.422,0,0,1,4.3.077c4.1.155,8.829.31,12.044-.426,2.478-.465,13.941-7.9,15.568-12.857.349-.968.039-1.278-.155-1.51a2.555,2.555,0,0,1-.62-2.633,2.614,2.614,0,0,1,2.014-1.82,23.459,23.459,0,0,0,3.369-1.162c3.214-1.239,6.854-2.633,9.953-2.014a11.152,11.152,0,0,1,3.6,1.549,7.573,7.573,0,0,0,2.866,1.2,38.425,38.425,0,0,0,7.319,0,44.062,44.062,0,0,1,8.752,0,9.914,9.914,0,0,1,1.936.426c1.7-6.622,4.531-12.276,7.552-18.162l2.091-4.1c1.975-4.221,4.337-24.63,3.485-31.252a17.079,17.079,0,0,1-4.608-3.253C359.514,76.064,358.043,74.747,356.494,74.515Z" transform="translate(245.578 208.244)" fill="#373e44"/>
    <path id="Path_5" data-name="Path 5" d="M158.489,62.723c0-.155-.039-.31-.039-.5A2.041,2.041,0,0,0,158.489,62.723Z" transform="translate(455.162 178.753)" fill="#373e44"/>
    <path id="Path_6" data-name="Path 6" d="M158.7,62.962c-.077-.194-.155-.349-.232-.542h0C158.547,62.575,158.625,62.769,158.7,62.962Z" transform="translate(455.219 179.328)" fill="#373e44"/>
    <path id="Path_7" data-name="Path 7" d="M276.136,75.919a7.318,7.318,0,0,0-2.014-.5c-1.355-.077-2.788-.039-4.221,0a24.007,24.007,0,0,1-8.946-.813,22.765,22.765,0,0,1-4.066-1.781c-1.278-.7-1.355-.813-3.6,0-.852.271-1.588.542-2.324.852a29.9,29.9,0,0,1-5.77,1.743,2.691,2.691,0,0,1-2.595,2.13h-2.788a2.637,2.637,0,0,1-2.633-2.246,62.644,62.644,0,0,1-10.3-2.014l-1.317-.349a27.626,27.626,0,0,1-3.1-1.2,21.876,21.876,0,0,0-4.337-1.549c.116.077.077.426.116.852a7.146,7.146,0,0,0,2.169,4.376,2.664,2.664,0,0,1-1.007,4.8,14.275,14.275,0,0,0-1.51.387,3.085,3.085,0,0,1,.116.581,2.77,2.77,0,0,1-1.2,2.517c-1.394.891-1.781,2.362-2.246,4.918-.658,3.447-1.549,8.132-7.59,10.65a2.642,2.642,0,0,1-2.285-.116,2.7,2.7,0,0,1-1.355-1.82,23.859,23.859,0,0,1-.5-4.531c-.194-3.369-.349-4.415-2.556-5.422-3.911-1.433-9.759,1.433-13.477,4.8a2.611,2.611,0,0,1-2.362.62,2.655,2.655,0,0,1-1.9-1.549c-1.007-2.246-4.144-4.3-6.738-5.151a11.09,11.09,0,0,0-3.33-1.007c-2.866-.542-4.453-1.626-4.8-5.848v-.194a2.566,2.566,0,0,1,.581-1.665c.194-.465.465-1.2.658-1.82a15.912,15.912,0,0,1,.929-2.13V73.4a18.181,18.181,0,0,1,5.383-4.957c1.9-1.317,3.718-2.595,4.027-3.989a14.45,14.45,0,0,0-2.052-5.538c-3.563-2.362-15.1,1.781-18.743,4.763a21.7,21.7,0,0,0-3.214,4.26c-1.859,2.75-3.718,5.577-6.39,6.893-3.834,2.13-7.861,1.355-11.85.658a8.287,8.287,0,0,0-1.588-.077,7.268,7.268,0,0,1-3.989-.581,4.058,4.058,0,0,1-2.285-3.718c-.31-.271-.581-.542-.929-.852a23.544,23.544,0,0,0-2.866-2.4c-2.052.658-2.4,2.711-1.859,8.52.232,2.556.465,4.8-.271,6.506-.775,1.781-2.75,3.137-5.848,5.267-1.007.658-2.556,1.743-3.64,2.595a.191.191,0,0,1,.116.039,2.7,2.7,0,0,1,2.091,1.7,2.767,2.767,0,0,1-.426,2.672c-1.278,1.549-.232,3.253,4.918,8.016,2.788,2.595,5.383,5.034,6.39,7.9,1.936,6.119-1.433,8.868-4.144,11.114-.349.271-.7.62-1.046.891a2.8,2.8,0,0,1,1.355,1.859,2.049,2.049,0,0,1-.039,1.084,16.251,16.251,0,0,0,6.467,1.7c.077,0,.581.116.658.116,2.711.542,8.365,1.7,10.456.31,0,0,.077-.232.271-1.046a7.281,7.281,0,0,1,1.743-3.524c3.95-3.95,9.023-4.957,13.941-5.925,3.408-.658,6.661-1.278,9.255-2.866,1.162-.7,2.246-1.433,3.214-2.13,4.337-2.943,8.4-5.731,16.613-3.8a2.707,2.707,0,0,1,1.975,1.936,11.155,11.155,0,0,0,2.091,1.433c1.9,1.123,5.073,3.059,4.221,6.506-.542,2.672-3.524,3.021-6.119,3.292a12.429,12.429,0,0,0-3.214.62,21.28,21.28,0,0,0,1.278,2.44c1.046,1.781,2.324,4.027,1.82,6.777-.232,2.052-1.7,3.524-2.866,4.763,3.679,1.239,8.481,3.8,7.668,9.991a13.244,13.244,0,0,1-1.123,4.066,5.791,5.791,0,0,0-.465,1.278,3.129,3.129,0,0,1,.542.271c1.9.968,5.151-2.672,7.164-4.763a20.012,20.012,0,0,1,3.447-3.137,13.373,13.373,0,0,1,6.235-2.169,13.478,13.478,0,0,0,2.75-.581,12.782,12.782,0,0,0,2.324-.852c-.155-1.046.077-2.75,1.355-5.189,3.253-6.119,13.438-7.939,21.415-8.4h.077a9.539,9.539,0,0,1,3.137.426c.387.077.774.077,2.169-.542a16.991,16.991,0,0,0,2.556-1.781,15.805,15.805,0,0,1,5.964-3.292,13.3,13.3,0,0,1,5.073-.349c1.665.077,2.788.155,3.524-.349a4.947,4.947,0,0,0,1.472-.968,6.489,6.489,0,0,1,.774-4.686c2.827-4.763,10.069-6.39,15.336-5.577,3.1.465,5.344,2.362,7.319,4.1a13.159,13.159,0,0,0,1.2.968,2.181,2.181,0,0,1,1.317-.116h0a21.086,21.086,0,0,1,1.433-4.337,9.279,9.279,0,0,0,.929-2.788,5.872,5.872,0,0,0-1.123-2.9c-1.007-1.743-2.4-4.144-1.549-7.552a13.939,13.939,0,0,1,2.091-4.608c.891-1.355,1.278-1.9.658-4.221-.62-3.059-1.394-3.253-5.151-4.415l-1.046-.31a2.57,2.57,0,0,1-1.859-2.13,2.606,2.606,0,0,1,1.084-2.633,1.712,1.712,0,0,0,.891-1.472c0-.039-.039-.077-.039-.116a6.9,6.9,0,0,1-.658-1.588C279.544,77.042,277.608,76.384,276.136,75.919Z" transform="translate(326.671 167.262)" fill="#373e44"/>
    <path id="Path_8" data-name="Path 8" d="M240.227,91.817a40.591,40.591,0,0,1-8.4-.039,12.685,12.685,0,0,1-4.918-1.9,6.414,6.414,0,0,0-1.82-.891c-1.743-.271-4.8.891-7.048,1.743a8.424,8.424,0,0,0-1.046.426,7.5,7.5,0,0,1-.349,3.408c-2.44,7.4-16.032,15.8-19.6,16.459a36.279,36.279,0,0,1-7.668.658c-1.9,0-3.8-.077-5.615-.116-1.51-.039-2.982-.116-4.26-.116-1.626-.077-3.369-.039-5.228,0-5.422.116-11.5.194-15.568-2.556a33.307,33.307,0,0,1-6.932-6.661c-3.911-4.492-6.932-8.094-13.554-6.545-2.207.542-2.517,1.239-3.292,2.943a13.044,13.044,0,0,1-2.75,4.337c-1.975,2.207-5.073,3.33-8.094,4.415-1.123.426-2.13.813-3.1,1.239a31.222,31.222,0,0,1,2.672,5.886c3.911.891,7.358,3.33,10.65,5.693a35.23,35.23,0,0,0,6.428,3.95,34.77,34.77,0,0,1,6.506,4.027,24.775,24.775,0,0,0,5.925,3.6,8.992,8.992,0,0,0,3.408.039,12.775,12.775,0,0,1,6,.31c4.26,1.007,7.048,4.647,9.449,7.9a24.3,24.3,0,0,0,4.531,5.034,66.143,66.143,0,0,0,5.848,3.64c7.435,4.376,13.322,8.094,15.258,12.237l.7-.116a11.38,11.38,0,0,0,4.376-1.162c1.975-1.123,1.975-1.859,1.936-4.027,0-2.014-.078-4.763,2.13-7.358a12.241,12.241,0,0,1,4.879-3.137,9.087,9.087,0,0,0,3.8-2.362,49.551,49.551,0,0,0,2.827-5.151,29.231,29.231,0,0,1,5.383-8.365c1.781-1.859,3.95-3.756,6.274-5.77,4.027-3.485,8.171-7.048,9.991-10.65a55.643,55.643,0,0,0,2.324-7.048c1.394-4.918,2.943-10.379,6.119-13.864-.155-.039-.31-.077-.542-.116A41.822,41.822,0,0,0,240.227,91.817Z" transform="translate(347.555 255.537)" fill="#373e44"/>
    <path id="Path_9" data-name="Path 9" d="M250.726,104.427a7.642,7.642,0,0,1-.039,5.886c-3.253,7.242-18.279,9.759-23.662,9.294l-2.246-.194c-3.253-.271-4.8-.426-7.9,1.007a31.728,31.728,0,0,0-3.1,1.781,27.857,27.857,0,0,1-7.861,3.64l-1.549.349c-3.369.813-7.59,1.82-10.882,1.046a12.876,12.876,0,0,1-5.809-4.1,9.344,9.344,0,0,0-2.75-2.362c-2.13-.852-4.453-.349-7.048.232a18.792,18.792,0,0,1-7.242.658c-3.834-.581-5.422-2.9-6.545-4.608a4.082,4.082,0,0,1-.271-.426c-.039.077-.077.194-.116.271a21.848,21.848,0,0,1-3.679,5.383c-1.2,1.355-3.33,2.324-5.577,3.33-1.317.62-3.524,1.588-3.95,2.207-.5,1.7,1.317,3.6,3.911,6.119,1.936,1.859,3.8,3.6,4.221,5.77.891,2.943-1.046,7.358-3.718,12.78a32.65,32.65,0,0,0-1.588,3.6c-1.936,5.809-3.95,9.681-8.984,13.515-3.563,2.788-8.868,6.157-13.515,6.157a16.6,16.6,0,0,1-4.725-.852,12.994,12.994,0,0,0-3.718-.581,3.29,3.29,0,0,0-2.556,1.433,10.674,10.674,0,0,1-2.13,1.936,51.814,51.814,0,0,1-12.005,7.59,20.639,20.639,0,0,1-7.9,1.588c-4.57,0-8.442-1.626-12.431-3.292-1.355-.542-2.788-1.123-4.3-1.7-7.668-2.672-7.048-7.629-6.622-10.921.349-2.595.465-4.1-1.084-5.886-2.943-3.214-13.67-3.292-18.124-.929.077.31.116.581.194.891.929,3.911,1.123,7.009-4.027,11.734a16.047,16.047,0,0,1-7.126,3.408,13.207,13.207,0,0,0-4.57,1.9,9.151,9.151,0,0,0-1.7,3.447A23.539,23.539,0,0,1,36.533,189,5.143,5.143,0,0,1,33.59,191.1a11.593,11.593,0,0,0-.775,3.679,13.446,13.446,0,0,1-2.4,7.4,23.783,23.783,0,0,1-3.447,3.292c-1.936,1.588-5.112,4.26-4.608,5.654.426.813,4.415.426,6.157.194,1.084-.116,2.091-.194,2.866-.194,5.422,0,9.953,1.859,14.29,3.718a2.69,2.69,0,0,1,1.626,2.052,2.593,2.593,0,0,1-.891,2.44l-1.239,1.046c-2.595,2.246-3.64,3.214-3.447,5.422.039.387.349.7.891,1.355,2.052,2.4,2.711,4.841-.31,9.449a32,32,0,0,1-3.873,4.957c-2.75,3.021-4.066,4.57-2.788,9.255a7.715,7.715,0,0,0,1.162,1.936,10.837,10.837,0,0,1,2.44,5.5,9.227,9.227,0,0,1-.194,3.447,4.266,4.266,0,0,0-.194,1.588,14.636,14.636,0,0,0,1.355,6.39,34.151,34.151,0,0,1,1.317,3.756,13.922,13.922,0,0,1,.813,3.6,6.538,6.538,0,0,1,1.9,2.827c1.162,3.563-1.046,7.358-2.827,10.417-.155.271-.31.5-.465.775a6.438,6.438,0,0,1,3.485,4.686,6.649,6.649,0,0,1-3.214,6.971,5.488,5.488,0,0,1-3.1.581,41.472,41.472,0,0,0,.155,4.841c.116,1.317.194,2.595.194,3.756-.116,1.781-.31,3.408-.5,5.034-.426,3.64-.891,7.435-.232,10.456.852,3.176,2.285,4.221,4.879,6.157.7.5,1.472,1.084,2.246,1.743,3.873,3.021,4.608,4.725,5.538,7.706a24.218,24.218,0,0,0,.852,2.517l.658,2.091c1.472,4.647,4.1,13.012-2.207,16.962-.116,2.517-.581,6.816-1.975,9.643a14.578,14.578,0,0,1,.542,5.577c3.369-2.13,7.358-3.33,11.231-4.531,4.647-1.355,9.41-2.827,13.051-5.731,4.608-3.95,9.449-8.094,15.916-11.153,1.239-.542,2.324-1.007,3.292-1.433,4.725-1.975,6.854-2.9,9.914-7.706a7.75,7.75,0,0,0,.968-1.743c.62-1.472,1.317-1.9,3.292-3.214a17.661,17.661,0,0,1,6.351-2.014,16.156,16.156,0,0,0,4.647-1.278l2.13-1.123c3.369-1.82,4.647-2.285,10.611-1.665a37.694,37.694,0,0,0,6.08.116c4.879-.116,9.875-.31,13.167,1.665,5,2.246,4.027,5.925,3.176,8.907-.155.62-.349,1.317-.5,2.052a2.846,2.846,0,0,1-1.472,1.859,2.713,2.713,0,0,1-2.324,0,6.075,6.075,0,0,0-1.743-.271,15.187,15.187,0,0,0,.62,2.827,16.967,16.967,0,0,1,.813,3.718c3.756-.426,7.164-.31,10.8,2.362a7.491,7.491,0,0,1,2.478,1.82,3.072,3.072,0,0,0,1.626.929c-.039-.039.039-.039.62-.31l.813-.349c-.155-2.556-.039-5.654,3.369-7.552,4.182-2.324,12.508.31,15.839,1.588a9.333,9.333,0,0,1,4.647,3.834c.542.736.7.968,1.084,1.123a12.212,12.212,0,0,0,4.26,1.549c2.556.465,4.492,1.084,7.629,5.228,4.1,5,7.745,5.189,13.786,5.5,1.781.077,3.64.194,5.654.426a40.789,40.789,0,0,1,11.5,2.982,26.242,26.242,0,0,0,8.713,2.246c7.319.736,10.146,5.46,12.857,10.069.465.774.929,1.549,1.394,2.362a70.139,70.139,0,0,1,5.615,7.668,5.5,5.5,0,0,1,.31.7c.194.7.387,1.549.62,2.517.31,1.394.968,4.376,1.51,5.034a27.219,27.219,0,0,0,5.886-.039c.658-.232,1.472-1.433,2.246-2.556a7.365,7.365,0,0,1,3.214-3.214c5.654-2.052,21.3,3.292,25.288,5.305,11.579,4.957,25.714,12.586,26.489,20.6a7.611,7.611,0,0,1-2.44,6.312,6.268,6.268,0,0,1,.271,1.7c-.155,2.827-2.44,4.725-4.26,6.274a14.567,14.567,0,0,0-1.9,1.781,5.806,5.806,0,0,0-.813,1.626,9.908,9.908,0,0,1-2.246,3.911,9.408,9.408,0,0,1-3.6,2.014,6.4,6.4,0,0,0-1.626.775c0,.077-.039.929-.077,1.9a8.691,8.691,0,0,1-.968,4.221,6.606,6.606,0,0,1-3.33,2.4,3.881,3.881,0,0,0-1.433.736c-4.879,3.021-6.235,4.531-6.738,7.4a3.082,3.082,0,0,1-.426.968,67.148,67.148,0,0,1,.039,13.941,6.942,6.942,0,0,1,.929.465c1.975,1.355,2.362,3.8,2.672,5.886.194,1.239.426,2.711.929,3.176a9.442,9.442,0,0,0,2.827,1.2c2.672.736,6.738,1.936,7.668,7.629a9.7,9.7,0,0,1-.155,3.059c4.221,1.162,7.358,4.57,10.185,7.706a37.84,37.84,0,0,0,3.911,3.95,30.411,30.411,0,0,0,3.756,2.169c.232.116.5.271.774.387,1.162-6.312,5.267-11.54,9.72-16.265,1.084-1.084,2.246-2.517,3.447-3.989a42.356,42.356,0,0,1,6.235-6.738,9.68,9.68,0,0,1,3.8-1.239,8.768,8.768,0,0,0,2.324-.581,26.275,26.275,0,0,0-1.743-3.214,14.926,14.926,0,0,1-1.9-4.3c-.813-4.608.039-9.914.891-14.987.349-1.936.62-3.834.852-5.615a14.949,14.949,0,0,1,2.285-8.094c.426-.813.891-1.7,1.433-2.827,1.51-3.873,1.588-8.094,1.665-12.547a76.213,76.213,0,0,1,.5-8.326,47.8,47.8,0,0,1,4.415-11.269l.7-1.472c2.091-4.415,1.7-7.552,1.084-12.354l-.271-2.169c-1.51-8.481-1.472-17.078-1.433-25.4l.039-4.26a27.876,27.876,0,0,0-.7-5.073c-.271-1.317-.5-2.711-.7-4.027-.62-4.918.271-9.527,1.162-13.98a49.97,49.97,0,0,0,1.278-9.72c0-6.583-.542-10.843-3.485-16.149a6.654,6.654,0,0,0-1.317-1.7c-1.743-1.51-1.433-2.866-.968-4.957l.232-1.162a22.956,22.956,0,0,1,2.091-4.453,11.153,11.153,0,0,0,1.743-4.027,22.257,22.257,0,0,0,.581-5,20.9,20.9,0,0,1,.116-2.169,2.7,2.7,0,0,1-.077-2.44,57.341,57.341,0,0,0,2.13-5.77c1.549-4.918,3.33-10.456,7.009-13.322,3.756-2.9,7.242-1.82,9.759-1.084a8.388,8.388,0,0,0,4.221.581c2.13-.232,4.647-1.7,6.816-3.021a31.937,31.937,0,0,1,4.647-2.44c4.182-1.781,4.376-2.556,5.538-6.816.271-.968.542-2.091.929-3.33,3.137-11.076,10.456-20.951,17.543-30.477a169.017,169.017,0,0,0,11.656-17.117,19,19,0,0,1-8.249,2.091c-.426,0-.852-.039-1.239-.039-5.5-.465-10.03-4.066-13.554-10.688-.387-.852-.929-1.936-1.588-3.292-7.474-15.181-9.1-20.37-7.4-23.119,2.014-3.64,6.7-2.285,10.107-1.317a16.654,16.654,0,0,0,3.834.813c1.433-.387,1.588-.542,1.665-4.182a32.2,32.2,0,0,1,.426-5.189c.116-1.278.426-2.943.7-4.8.968-5.809,2.285-13.709.271-17.543-.542-1.162-1.355-1.433-3.447-2.014a11.856,11.856,0,0,1-6.274-3.369c-2.478-3.059-2.091-7.087-1.82-10.3.155-1.549.387-4.144-.155-4.686,0-.039-.5-.465-2.4-.232a2.33,2.33,0,0,1-2.44-1.084,2.854,2.854,0,0,1-.31-2.672,7.223,7.223,0,0,0,.349-3.6,2.786,2.786,0,0,1-.542-1.781c.039-.155.039-.271.077-.426a26,26,0,0,0-3.756-7.28c-2.9-4.337-5.422-6-9.6-8.791l-2.982-1.975c-6.777-4.531-15.181-10.146-22.655-12.315-5.228-1.588-16.73-2.556-21.57-.465a54.272,54.272,0,0,0-12.431,8.52,16.28,16.28,0,0,0-2.207,3.756c-1.162,2.478-2.362,5-4.57,6.39-2.982,1.936-4.957,1.278-6.661.349a5.609,5.609,0,0,0-2.014-.658c-3.6-.31-5.77.581-6.854,5.577a16.569,16.569,0,0,0-.465,3.369c-.155,3.524-1.626,4.3-5.5,5.615-4.3,1.743-11.463.7-14.909-.31a2.76,2.76,0,0,1-1.7-1.588,2.592,2.592,0,0,1,.155-2.324,23.623,23.623,0,0,1,1.472-2.324c1.665-2.4,2.014-3.137,1.317-4.492a4.939,4.939,0,0,1-.775-.349,5.969,5.969,0,0,1-3.563-3.6c-.542-.929-.194-2.4.077-3.563.039-1.626.116-2.9.155-4.1.155-2.788.155-3.718-1.472-5.073-2.478-2.014-11.579-2.75-15.064-3.021-1.123-.077-2.014-.194-2.478-.232a2.775,2.775,0,0,1-1.278-.581,7.416,7.416,0,0,1-.929,2.44C260.95,95.249,255.877,101.445,250.726,104.427Z" transform="translate(64.077 251.949)" fill="#373e44"/>
    <path id="Path_10" data-name="Path 10" d="M105.334,10.98l-1.084,4.182a11.117,11.117,0,0,1-3.8,5.77,10.675,10.675,0,0,1-3.718,1.626,8.535,8.535,0,0,0-2.246.852s-.039.077-.077.077a11,11,0,0,0,1.239.542,17.413,17.413,0,0,1,3.176,1.7,2.428,2.428,0,0,1,1.2-1.51,2.479,2.479,0,0,1,3.408,1.2c2.091,4.144-.387,6.119-1.549,7.087a3.677,3.677,0,0,0-1.2,1.278,6.88,6.88,0,0,0-1.046,3.253,22.217,22.217,0,0,1-.542,2.9,39.55,39.55,0,0,1-2.943,5.422,32.447,32.447,0,0,0-2.4,4.376,18.357,18.357,0,0,0-1.394,4.841,19.033,19.033,0,0,1-1.859,6.2,11.923,11.923,0,0,1-2.943,3.485c-1.239,1.162-1.859,1.781-1.975,2.788a7.638,7.638,0,0,0,.31,2.788,12.469,12.469,0,0,1,.426,4.57c0,1.239-1.859,7.668-2.9,9.178-.891,1.82-2.633,3.1-4.182,4.26a14.051,14.051,0,0,0-2.866,2.517,19.37,19.37,0,0,0-2.014,4.763,23.592,23.592,0,0,1-3.176,7.087A13.55,13.55,0,0,1,68,104.968a8.1,8.1,0,0,0-1.936,1.588,17.551,17.551,0,0,0-1.859,5.383,25.155,25.155,0,0,1-1.9,5.925,52.03,52.03,0,0,1-7.28,10.611c-1.51,1.859-3.059,3.718-4.415,5.77a45.4,45.4,0,0,0-3.021,5.112C45,144.2,42.056,149.658,35.279,152.02a12.189,12.189,0,0,1-5.305.581,14.4,14.4,0,0,0-2.4.077c-1.2.542-1.975,1.781-3.214,3.756a28.593,28.593,0,0,1-1.781,2.633c-2.9,4.1-6.738,6.583-10.495,8.946a38.612,38.612,0,0,0-8.52,6.583,23.629,23.629,0,0,0-2.324,3.563c-.426.7-.813,1.317-1.239,1.936.7.116,1.433.271,2.285.465,1.781.349,3.485.7,4.453.813a18.067,18.067,0,0,0,2.091-.387,15.329,15.329,0,0,1,5-.349,10.79,10.79,0,0,1,5.693,2.672,10.541,10.541,0,0,0,2.13,1.472c1.743.929,3.176.891,5.151.852a23.7,23.7,0,0,1,4.8.232c6.157.813,10.069,3.95,12.508,10.03,4.221,10.107,3.369,23.158,2.556,34.7-.31,4.453-.62,8.752-.62,12.7V245.5c.039,10.107.077,18.976-7.668,26.295,2.478,1.781,5.189,3.8,6.854,6.351a20.116,20.116,0,0,1,2.052,4.531,12.485,12.485,0,0,0,.929,2.362,9.786,9.786,0,0,0,3.137,3.6c.775.62,1.588,1.317,2.672,2.362,2.44,2.13,4.1,5.693,5.731,9.139,3.524,7.319,5,8.675,7.668,7.435,1.472-.62,2.788-1.278,4.066-1.859,4.57-2.169,8.868-4.221,12.857-2.478,2.866,1.278,4.879,4.182,6.351,9.139.155.465.5,1.394.968,2.556,4.26,10.65,5.925,16.575,3.33,19.518a5.7,5.7,0,0,1-4.492,2.207c-2.44-.194-3.834-2.246-4.686-3.6-.271-.349-.465-.658-.658-.891a7.631,7.631,0,0,1-1.665-1.743,6.02,6.02,0,0,0-.775.039,36.61,36.61,0,0,0-8.016,3.64,10.807,10.807,0,0,0,.039,2.207,13.643,13.643,0,0,1-.077,3.059,26.305,26.305,0,0,1-3.524,11.114,12.082,12.082,0,0,1-2.672,2.633,5.82,5.82,0,0,0-.968.813c.349.155,1.626.581,2.517.891,2.4.852,5.46,1.9,7.319,4.57a18.122,18.122,0,0,1,2.788,8.249c.5,3.679.658,4.57,5.46,4.57a2.719,2.719,0,0,1,2.711,2.711,16.042,16.042,0,0,0,.968,4.841,25.456,25.456,0,0,1,1.162,5.731c3.137,2.75,4.376,6.622,5.46,10.069.891,2.866,1.743,5.577,3.524,6.854,1.2.891,2.207.891,4.182.775a13.107,13.107,0,0,1,4.221.155,21.582,21.582,0,0,1,3.95,2.13,19.016,19.016,0,0,0,3.214,1.781c-.116-.542-.232-1.084-.349-1.665a29.655,29.655,0,0,1-.658-5.577,23.1,23.1,0,0,1,1.355-7.164,18.567,18.567,0,0,0,1.084-6.622,25.038,25.038,0,0,0-1.665-5,27.765,27.765,0,0,1-2.169-7.552,20.767,20.767,0,0,1,0-4.1,16.293,16.293,0,0,0,.039-3.059,10.779,10.779,0,0,0-.542-1.7,9.278,9.278,0,0,1-.852-5.034c-.039-2.362,1.123-4.686,2.13-6.738a29.347,29.347,0,0,0,1.433-3.369c.155-1.046.349-2.207.5-3.33.852-5.383,1.433-8.946,5.848-14.677a37.989,37.989,0,0,0,5.5-11.385c.581-2.595.968-5.693,1.394-8.984,1.239-10.456,2.672-22.345,14.29-26.295a98.994,98.994,0,0,1,9.836-2.633c5.383-1.239,10.456-2.4,14.445-4.8a71.809,71.809,0,0,0,17.5-14.135A141.038,141.038,0,0,1,198.741,248.8c8.055-5.383,18.472-1.162,22.964.62,8.713,3.6,14.638,1.239,23.584-2.4l.968-.387c6.157-2.517,6.312-2.866,5.654-11.618a20.6,20.6,0,0,1,.194-2.9h0a13.966,13.966,0,0,0-1.317-1.084,12.008,12.008,0,0,0-3.8-1.9,20.324,20.324,0,0,1-5.189-2.595,2.744,2.744,0,0,1-.542-3.756,3.074,3.074,0,0,1,.852-.736c-2.75-7.319-2.246-13.825-1.665-21.183l.271-3.6c.31-4.221,2.169-6.854,3.8-9.178a38.033,38.033,0,0,0,2.13-3.33c2.595-4.492,2.478-10.417,2.4-16.11,0-2.014-.039-3.989.077-5.848.194-4.1-.813-6.661-2.091-9.836a60.049,60.049,0,0,1-2.014-5.693c-1.355-5.848.62-9.178,2.75-12.7.5-.891,1.084-1.82,1.665-2.9,1.123-2.207,2.207-4.686,3.253-7.164,2.943-6.893,6-14.058,11.811-18.472a31.831,31.831,0,0,1,5.267-2.362,25.31,25.31,0,0,0,4.376-1.975,57.612,57.612,0,0,0,7.009-6.312,71.371,71.371,0,0,1,5.305-5.034c1.317-1.007,2.556-1.9,3.756-2.75,4.182-2.982,7.319-5.189,8.287-9.759a2.534,2.534,0,0,1-1.82-2.362,2.66,2.66,0,0,1,1.7-2.633,3.957,3.957,0,0,0-.813-1.355c-2.44-2.478-8.984-2.13-14.755-1.781-3.989.232-7.706.465-10.843-.116-7.28-1.046-17.388-2.517-23.971-8.326-5.383-4.415-7.009-4.8-14.019-3.214-2.633.5-5.189,1.162-7.706,1.781-2.982.736-5.964,1.51-9.217,2.091-.658.116-1.394.194-2.169.271a14.133,14.133,0,0,0-4.415.891,10.04,10.04,0,0,0-1.743,2.866c-.813,1.7-1.781,3.679-3.718,4.763-3.524,2.052-6.583.658-8.752-.387-2.014-.968-3.059-1.355-4.608-.581-1.123.581-2.517,2.556-3.756,4.337a22.444,22.444,0,0,1-4.182,4.841,68.873,68.873,0,0,1-6.351,4.182c-1.2.736-2.4,1.433-3.524,2.207a2.807,2.807,0,0,1-3.137-.077,2.728,2.728,0,0,1-.929-2.982c.7-2.362.232-4.841-.31-7.435-.542-2.556-1.084-5.228-.465-8.016.736-4.841,4.608-7.009,7.706-8.791,2.13-1.2,4.1-2.362,5.112-4.144,2.014-3.834-.349-7.164-4.144-11.85-.542-.658-1.084-1.355-1.549-1.936a13.057,13.057,0,0,1-2.788-6.312,14.534,14.534,0,0,0-1.007-3.33,4.633,4.633,0,0,0-2.362-2.595,14.422,14.422,0,0,1-3.33-2.556,31.177,31.177,0,0,1-3.756-4.3c-1.9-2.44-2.9-3.756-7.126-4.725a32.2,32.2,0,0,0-3.369-.581,16.118,16.118,0,0,1-6.041-1.278,9.686,9.686,0,0,1-4.725-4.8,4.743,4.743,0,0,0-.968-1.433c-3.563-2.943-11.192-4.337-16.73-5.305-1.975-.349-3.563-.736-5.267-1.123C114.822.8,110.291-.289,106.69.06,106.883,3.274,106.07,7.34,105.334,10.98Z" transform="translate(0 0)" fill="#373e44"/>
    <path id="Path_11" data-name="Path 11" d="M206.83,33.893c-1.162.775-2.285,1.626-3.447,2.556-1.626,1.355-3.214,2.982-4.879,4.608a54.107,54.107,0,0,1-7.861,7.009,30.56,30.56,0,0,1-5.383,2.517A27.09,27.09,0,0,0,181,52.4c-4.337,3.33-7.126,9.836-9.8,16.11-1.123,2.672-2.246,5.228-3.447,7.552-.62,1.162-1.2,2.207-1.82,3.176-1.936,3.214-2.982,5-2.13,8.6a44.5,44.5,0,0,0,1.82,5.034c1.394,3.524,2.75,6.816,2.44,12.121-.077,1.743-.039,3.6-.039,5.538.077,6.157.155,13.089-3.1,18.743a23.348,23.348,0,0,1-2.44,3.873c-1.472,2.091-2.595,3.756-2.788,6.467l-.31,3.64c-.62,8.171-1.123,14.6,2.788,22.19a3.975,3.975,0,0,1,.155.542c.077.039.116.039.194.077a16.19,16.19,0,0,1,5.344,2.827c2.711,2.169,3.64,3.176,3.176,6.041a18.9,18.9,0,0,0-.116,1.9c.736,10.146-.039,13.128-9.023,16.807l-.968.387c-9.023,3.679-16.768,6.854-27.65,2.4-5.654-2.285-12.857-4.531-17.7-1.317a140.62,140.62,0,0,0-13.748,13.825,77.035,77.035,0,0,1-18.9,15.258c-4.686,2.788-10.417,4.1-15.955,5.422a95.936,95.936,0,0,0-9.333,2.478c-8.4,2.866-9.488,12.082-10.65,21.841-.426,3.292-.813,6.661-1.51,9.72a42.99,42.99,0,0,1-6.39,13.167c-3.679,4.725-4.066,7.242-4.879,12.276-.194,1.123-.387,2.362-.62,3.718a25.787,25.787,0,0,1-1.82,4.492,11.4,11.4,0,0,0-1.626,4.8,4.566,4.566,0,0,0,.542,2.672,17.058,17.058,0,0,1,.852,2.827,19.509,19.509,0,0,1,0,4.26,16.951,16.951,0,0,0,0,3.137,21.008,21.008,0,0,0,1.82,6.157,31.936,31.936,0,0,1,2.014,6.351,23.754,23.754,0,0,1-1.317,8.791,20.95,20.95,0,0,0-1.123,5.615,25.706,25.706,0,0,0,.62,4.57,31.193,31.193,0,0,1,.658,5.151c6.661-1.626,16.5-1.046,20.68,3.447,3.292,3.718,2.788,7.474,2.44,10.224-.426,3.1-.542,3.911,3.1,5.151,1.665.62,3.137,1.239,4.57,1.82,6,2.517,9.953,4.144,16.3,1.7a46.421,46.421,0,0,0,10.8-6.932,6.439,6.439,0,0,0,1.394-1.278,8.685,8.685,0,0,1,5.964-3.137,13.728,13.728,0,0,1,5.693.775,13.581,13.581,0,0,0,3.292.62c2.362,0,6.157-1.859,10.185-5,3.989-3.059,5.538-5.964,7.164-10.921a44.306,44.306,0,0,1,1.9-4.26c1.123-2.285,3.756-7.668,3.292-9.139-.232-.813-1.7-2.246-2.672-3.176-2.9-2.788-6.893-6.622-5.305-11.656.658-2.711,3.8-4.1,6.816-5.46a16.071,16.071,0,0,0,3.834-2.13,17.352,17.352,0,0,0,2.866-4.3,20.4,20.4,0,0,1,2.285-3.718,2.73,2.73,0,0,1,3.447-.581,11.658,11.658,0,0,1,3.873,3.989c1.007,1.51,1.433,2.052,2.827,2.285a14.479,14.479,0,0,0,5.305-.62c3.137-.7,6.545-1.433,10.34.077a13.933,13.933,0,0,1,4.608,3.64,8.663,8.663,0,0,0,3.214,2.556c1.859.465,5.577-.465,8.287-1.084l1.51-.349a24.157,24.157,0,0,0,6.312-2.982c1.2-.7,2.285-1.394,3.563-2.014,4.531-2.091,7.087-1.82,10.727-1.51l2.169.194c4.8.465,16.459-2.207,18.24-6.119a2.346,2.346,0,0,0-.155-2.014,5.871,5.871,0,0,1-5.267-3.292,2.691,2.691,0,0,1,1.123-3.64,2.6,2.6,0,0,1,2.207-.116,2.68,2.68,0,0,1,3.292.194c.271.271.5.5.736.775,3.563-1.9,8.442-7.319,9.255-9.488a4.749,4.749,0,0,0,.581-1.781,9.025,9.025,0,0,1,1.433-4.027c1.7-2.4,4.686-3.447,7.28-4.337a28.939,28.939,0,0,0,2.827-1.084,45.871,45.871,0,0,0,6.274-4.8c1.472-1.278,2.943-2.517,4.492-3.718,9.41-7.513,14.367-13.709,11.579-22.887a31.894,31.894,0,0,1-.891-6.157c-.271-3.059-.465-6.506-1.936-7.2a2.664,2.664,0,0,1-1.394-1.7,2.952,2.952,0,0,1-.077-1.162,2.6,2.6,0,0,1,.736-2.13c.31-.31.581-.542.852-.813a62.541,62.541,0,0,0,4.531-8.829c.542-1.355,1.355-3.021,2.207-4.8,1.665-3.369,3.718-7.59,3.524-10.03-.116-2.362-.194-2.362-2.827-2.672a15.053,15.053,0,0,1-4.608-1.007c-5.305-2.362-5.809-6.854-6.2-10.495a22.8,22.8,0,0,0-.852-4.686,2.568,2.568,0,0,1-.5-1.2c-.039-.077-.039-.155-.077-.194a2.712,2.712,0,0,1,.077-2.556h0a21.184,21.184,0,0,0-.039-4.182c-.31-.775-.542-.852-1.278-1.2a7.686,7.686,0,0,1-3.176-2.556c-4.415-5.693-3.447-14.909-2.711-22.345.194-1.859.387-3.64.465-5.189a108.087,108.087,0,0,0,0-15.026,25.34,25.34,0,0,0-2.672-7.823,27.943,27.943,0,0,1-2.9-8.442,23.017,23.017,0,0,1,.581-6.506c.426-2.052.775-3.679.194-5.577-.31-1.084-.5-1.859-.736-2.556a17.918,17.918,0,0,1-.813-7.552c.155-1.046.271-1.859.426-2.556.5-3.1.581-3.563-1.588-6.39-.658-.891-1.278-1.665-1.859-2.4-2.13-2.672-4.337-5.422-5.267-9.836-.31-1.394-.426-2.44-.542-3.33-.31-2.207-.349-2.517-2.556-4.763-.7-.658-1.317-1.123-1.781-1.549-2.324-1.936-2.517-2.556-3.1-6.119-.852-4.608.775-8.984,2.285-13.206,1.355-3.64,2.711-7.435,1.7-9.527-1.588-3.369-11.85-6.2-18.9-6.971C216.2,27.271,211.439,30.679,206.83,33.893Z" transform="translate(86.518 58.334)" fill="#373e44"/>
    <path id="Path_12" data-name="Path 12" d="M121.335,110.882a2.825,2.825,0,0,1,1.355,2.595c.581-.039,1.084-.077,1.626-.077a6.3,6.3,0,0,1,1.665.194c3.524.62,6.2,1.123,8.52-.116,1.472-.736,3.059-3.059,4.376-5.112a28.222,28.222,0,0,1,4.221-5.383c3.834-3.176,18.395-9.759,25.288-5.112,2.517,1.239,4.8,8.21,4.3,11.076-.891,3.524-3.718,5.538-6.235,7.319a15.582,15.582,0,0,0-3.873,3.408c-.116.271-.31.7-.465,1.162a21.212,21.212,0,0,1-.852,2.169v.155a.853.853,0,0,0,.31.039,18.489,18.489,0,0,1,4.337,1.317,18.43,18.43,0,0,1,7.823,5.151c4.686-3.369,11.114-5.886,16.768-3.8,4.918,2.285,5.577,5.925,5.809,9.1a14.89,14.89,0,0,0,1.123-3.873,15.7,15.7,0,0,1,2.13-6.08,2.991,2.991,0,0,1,.31-3.408,9.157,9.157,0,0,1,2.595-1.82,12.626,12.626,0,0,1-1.51-5,6.624,6.624,0,0,1,2.169-5.5c2.633-2.13,6.351-.465,9.643.929a17.976,17.976,0,0,0,2.324.929l1.278.31c3.447.891,10.688,2.75,13.283,1.549a2.729,2.729,0,0,1,2.556.194c.116.077.155.194.232.271a26.91,26.91,0,0,0,4.725-1.51c.813-.31,1.627-.62,2.517-.929,3.873-1.394,5.5-.929,7.9.31a18.077,18.077,0,0,0,3.214,1.394,20.1,20.1,0,0,0,7.048.542,35.424,35.424,0,0,1,4.957.039,15.652,15.652,0,0,1,3.214.775c1.626.542,1.665.542,2.44-.116a2.814,2.814,0,0,1,1.278-.62,2.613,2.613,0,0,0-.775-1.472,6.341,6.341,0,0,0-2.827-1.626c-1.7-.658-4.066-1.588-5.305-4.3a3.39,3.39,0,0,1-.232-1.084V96.863a18.034,18.034,0,0,1,.155-4.26c.194-1.472.387-3.292.039-4.066a12.006,12.006,0,0,0-2.207-2.672,13.337,13.337,0,0,1-4.221-6.893,24,24,0,0,1-.62-8.829c.194-3.679.271-5.848-1.51-7.745a21.373,21.373,0,0,0-2.711-1.51,18.43,18.43,0,0,1-3.989-2.44,18.056,18.056,0,0,1-2.246-2.285c-.929-1.046-2.246-2.517-3.059-2.75-1.743-.7-4.647-.387-6.932-.077l-1.472.155a74.3,74.3,0,0,1-12.508-.155,78.593,78.593,0,0,0-11.269-.194,36.525,36.525,0,0,1-12.741-.775c-.581-.039-1.743-.077-2.943-.116-2.9-.077-5.886-.155-7.978-1.046a18.54,18.54,0,0,1-5.809-4.376c-3.524-3.369-5.073-4.608-7.939-3.059a2.635,2.635,0,0,1-3.176-.581,33.441,33.441,0,0,1-4.8.891c-6.622.891-7.823,2.827-10.688,7.435-.929,1.394-1.9,2.982-3.137,4.725-2.4,2.827-3.989,5.538-4.453,7.706a19,19,0,0,0-.232,2.866c-.077,2.052-.116,4.415-2.014,6.932a18.443,18.443,0,0,1-4.066,4.763,13.359,13.359,0,0,0-3.6,4.453c-.542,1.355-.891,2.478-1.2,3.524a17.673,17.673,0,0,1-3.33,6.893,64.773,64.773,0,0,1-4.066,5.073c-1.317,1.588-2.711,3.176-3.873,4.879a16.148,16.148,0,0,1-4.144,4.26c.736.62,1.51,1.317,2.285,2.014A7.866,7.866,0,0,0,121.335,110.882Z" transform="translate(338.535 123.857)" fill="#373e44"/>
    <path id="Path_13" data-name="Path 13" d="M117.617,192.263a10,10,0,0,0,3.059.581c2.711.31,7.242.775,7.629,7.668.271,3.834-2.091,8.6-4.1,12.741-.775,1.588-1.51,3.137-2.052,4.415-.465,1.084-.891,2.091-1.355,3.059a13.146,13.146,0,0,1,4.027,1.394,13.534,13.534,0,0,0,5.693,1.7c1.7,0,4.3-.813,6.777-1.549a49.852,49.852,0,0,1,5.925-1.549,42.784,42.784,0,0,1,15.3.387c9.914,1.278,12.121,3.873,16.575,10.224.658.891,1.355,1.936,2.207,3.059a3.868,3.868,0,0,0,3.33,1.781,9.526,9.526,0,0,1,5.189,1.859c2.014,1.239,3.137,3.64,4.1,5.886.039-.077.039-.194.077-.271.7-2.091,1.588-4.725,3.989-6.622a14.446,14.446,0,0,1,6.506-2.4,1.961,1.961,0,0,1,.271-.581,23.181,23.181,0,0,1,4.918-5c2.672-2.207,3.214-2.75,2.44-5.228-.542-1.51-2.943-3.718-5-5.654-3.447-3.253-8.016-7.435-7.048-12.005a3.986,3.986,0,0,1-2.285-2.827c-.736-3.33,2.866-5.77,7.048-8.558a29.135,29.135,0,0,0,3.95-2.982,26.42,26.42,0,0,0-.232-3.756c-.271-2.595-.581-6.428.62-9.565a2.64,2.64,0,0,1,.891-3.447,45.874,45.874,0,0,1,4.066-2.362c2.517-1.355,4.027-2.169,5.615-4.57,1.317-1.9,2.75-3.6,4.182-5.344,1.317-1.588,2.711-3.176,3.834-4.841a12.127,12.127,0,0,0,2.517-5.189,34.06,34.06,0,0,1,1.394-4.066,18.14,18.14,0,0,1,4.879-6.274,15.164,15.164,0,0,0,3.253-3.718c1.046-1.394,1.084-2.285,1.123-4.144a17.2,17.2,0,0,1,.349-3.834c.891-3.95,3.485-7.59,5.5-9.953,1.046-1.472,1.975-2.943,2.827-4.3,3.137-5,5.422-8.636,14.561-9.914.658-.077,1.2-.155,1.665-.232a42.22,42.22,0,0,1-3.485-2.788c-2.4-2.4-5.693-3.6-9.217-4.879-4.763-1.743-10.185-3.679-13.012-9.139l-.891-1.781c-2.246-4.57-3.6-7.319-7.552-10.688l-1.626-1.239a102.753,102.753,0,0,1-12.857-10.456c-10.224-10.572-19.634-15.955-33.42-22.151A98.263,98.263,0,0,1,166.76,35.19c-5.228-3.6-10.65-7.319-16.5-9.372-1.975-.658-4.1-1.394-6.235-2.169-3.33-1.162-6.7-2.324-10.069-3.408a9.187,9.187,0,0,0-7.28.077,25.851,25.851,0,0,1-4.066,1.046,17.532,17.532,0,0,1-5.305-.077c-1.626-.232-3.679-.465-4.453.077-.736.5-.62,1.743-.155,4.492a16.422,16.422,0,0,1,.349,4.337,2.607,2.607,0,0,1-1.394,2.052,2.564,2.564,0,0,1-2.478.039,9.914,9.914,0,0,1-4.453-5,8.61,8.61,0,0,1-4.8-1.394,10.6,10.6,0,0,0-1.626-.813c-5.151-1.82-5.151-1.859-9.759,1.743l-.929.7a.038.038,0,0,0-.039.039c1.549,3.989-.077,8.636-1.7,13.128-1.317,3.563-2.633,7.242-2.13,9.991Q84.08,53,84.2,53.353c.039.077.465.387.813.7.5.426,1.2,1.007,2.052,1.781,3.33,3.33,3.756,4.763,4.182,7.939.116.775.232,1.743.465,2.943.658,3.137,2.246,5.073,4.182,7.59q.987,1.162,1.975,2.556c3.408,4.453,3.253,6.661,2.595,10.495-.116.658-.232,1.394-.349,2.285a11.4,11.4,0,0,0,.62,5.46c.194.736.465,1.549.7,2.595.968,3.059.387,5.77-.077,8.132a17.128,17.128,0,0,0-.542,4.918,26,26,0,0,0,2.4,6.7,29.212,29.212,0,0,1,3.176,9.6,108.117,108.117,0,0,1,0,15.839c-.077,1.549-.232,3.447-.465,5.422-.62,6.428-1.472,14.483,1.665,18.55a2.37,2.37,0,0,0,1.2.929,7.2,7.2,0,0,1,4.066,4.686,21.781,21.781,0,0,1,.232,5.848c0,.426-.039.775-.039,1.162a24.739,24.739,0,0,1,1.472,6.622C115.061,189.629,115.293,191.256,117.617,192.263Z" transform="translate(240.211 56.107)" fill="#373e44"/>
    <path id="Path_14" data-name="Path 14" d="M190.891,138.268c-1.239-2.595-8.83-7.048-13.051-9.527-2.556-1.549-4.841-2.866-6.274-3.989a27.469,27.469,0,0,1-5.654-6.119c-2.052-2.75-4.027-5.344-6.583-5.964a9.019,9.019,0,0,0-3.95-.116,12.45,12.45,0,0,1-5.809-.31,28.483,28.483,0,0,1-7.28-4.337,30.006,30.006,0,0,0-5.383-3.369,40.956,40.956,0,0,1-7.474-4.531c-1.239-.852-2.4-1.743-3.679-2.517a.535.535,0,0,1,.116.155c2.324,2.324,2.052,5.693,1.743,8.984-.194,2.478-.426,5.073.542,6.312.775.852,1.859,1.162,3.6,1.665,2.207.62,5.151,1.394,6.777,4.763,2.9,5.383,1.433,14.019.31,20.912-.31,1.743-.542,3.369-.7,4.725a29.071,29.071,0,0,0-.349,4.492c-.077,3.485-.155,7.784-5.809,9.294-2.13.465-4.3-.194-6.622-.852a22.719,22.719,0,0,0-3.756-.852c.426,3.447,5.654,14.1,7.435,17.736.7,1.433,1.278,2.595,1.588,3.292,2.556,4.8,5.577,7.358,9.139,7.706h.813c6.351,0,14.755-6.545,24.9-19.44,1.046-1.123,1.936-2.246,2.827-3.369a40.1,40.1,0,0,1,6.39-6.854c1.084-.736,1.975-1.239,2.827-1.743,1.975-1.084,3.408-1.9,4.531-3.8a18.828,18.828,0,0,0,1.162-2.556c.775-2.052,1.433-3.447,4.337-5.809.5-.465,1.084-.891,1.588-1.278.62-.465,1.007-.775,1.317-1.046A2.622,2.622,0,0,1,190.891,138.268Z" transform="translate(349.336 280.07)" fill="#373e44"/>
    <path id="Path_15" data-name="Path 15" d="M158.6,64.1a2.042,2.042,0,0,0,.581-.426,2.043,2.043,0,0,1-.581.426Z" transform="translate(455.593 182.919)" fill="#373e44"/>
    <path id="Path_16" data-name="Path 16" d="M103.01,201.475c0-.465.039-.929.077-1.355C103.049,200.546,103.01,200.972,103.01,201.475Z" transform="translate(295.905 574.883)" fill="#373e44"/>
    <path id="Path_17" data-name="Path 17" d="M105.246,196.83c-.271.31-.5.581-.736.891C104.742,197.411,105.013,197.1,105.246,196.83Z" transform="translate(300.214 565.433)" fill="#373e44"/>
    <path id="Path_18" data-name="Path 18" d="M104.824,197.37a10.957,10.957,0,0,0-.775,1.084C104.282,198.106,104.553,197.719,104.824,197.37Z" transform="translate(298.893 566.984)" fill="#373e44"/>
    <path id="Path_19" data-name="Path 19" d="M158.692,82.18c-.078.31-.155.62-.232.891C158.537,82.8,158.615,82.529,158.692,82.18Z" transform="translate(455.191 236.09)" fill="#373e44"/>
    <path id="Path_20" data-name="Path 20" d="M103.46,201.38c.039.155.039.31.077.465C103.5,201.69,103.5,201.5,103.46,201.38Z" transform="translate(297.198 578.503)" fill="#373e44"/>
    <path id="Path_21" data-name="Path 21" d="M103.636,201.98a18.15,18.15,0,0,1-.116,2.827A18.154,18.154,0,0,0,103.636,201.98Z" transform="translate(297.37 580.227)" fill="#373e44"/>
    <path id="Path_22" data-name="Path 22" d="M158.774,81.68c-.077.31-.116.581-.194.852C158.657,82.261,158.7,81.951,158.774,81.68Z" transform="translate(455.535 234.654)" fill="#373e44"/>
    <path id="Path_23" data-name="Path 23" d="M159.69,74.27a1.179,1.179,0,0,1-.31.31A2.333,2.333,0,0,0,159.69,74.27Z" transform="translate(457.833 213.368)" fill="#373e44"/>
    <path id="Path_24" data-name="Path 24" d="M159.714,74.04a2.687,2.687,0,0,1-.194.5C159.6,74.35,159.636,74.195,159.714,74.04Z" transform="translate(458.236 212.707)" fill="#373e44"/>
    <path id="Path_25" data-name="Path 25" d="M159.28,74.469l.039-.039h-.039Z" transform="translate(457.546 213.828)" fill="#373e44"/>
    <path id="Path_26" data-name="Path 26" d="M159.58,73.7a2.717,2.717,0,0,1,.039.968A2.717,2.717,0,0,0,159.58,73.7Z" transform="translate(458.408 211.731)" fill="#373e44"/>
    <path id="Path_27" data-name="Path 27" d="M159.163,78.11v.077C159.124,78.149,159.163,78.149,159.163,78.11Z" transform="translate(457.16 224.399)" fill="#373e44"/>
    <path id="Path_28" data-name="Path 28" d="M159.08,78.79Z" transform="translate(456.972 226.352)" fill="#373e44"/>
    <path id="Path_29" data-name="Path 29" d="M158.816,81.16c-.039.194-.077.426-.116.62C158.739,81.586,158.777,81.354,158.816,81.16Z" transform="translate(455.88 233.16)" fill="#373e44"/>
    <path id="Path_30" data-name="Path 30" d="M159.249,74.52h-.039Z" transform="translate(457.345 214.086)" fill="#373e44"/>
    <path id="Path_31" data-name="Path 31" d="M103.606,198.99c-.155.426-.31.852-.426,1.278A12.352,12.352,0,0,1,103.606,198.99Z" transform="translate(296.394 571.637)" fill="#373e44"/>
    <path id="Path_32" data-name="Path 32" d="M103.321,199.54c-.116.426-.194.891-.271,1.317C103.127,200.431,103.2,199.966,103.321,199.54Z" transform="translate(296.02 573.217)" fill="#373e44"/>
    <path id="Path_33" data-name="Path 33" d="M104.406,197.91c-.271.387-.5.775-.736,1.162C103.941,198.685,104.173,198.3,104.406,197.91Z" transform="translate(297.801 568.535)" fill="#373e44"/>
    <path id="Path_34" data-name="Path 34" d="M103.27,200.88c0,.039.039.077.039.116A.142.142,0,0,0,103.27,200.88Z" transform="translate(296.652 577.067)" fill="#373e44"/>
    <path id="Path_35" data-name="Path 35" d="M103.971,198.45a8.52,8.52,0,0,0-.581,1.2A11.473,11.473,0,0,1,103.971,198.45Z" transform="translate(296.997 570.086)" fill="#373e44"/>
    <path id="Path_36" data-name="Path 36" d="M103.47,201.49a13.15,13.15,0,0,1,.271,1.9A7.481,7.481,0,0,0,103.47,201.49Z" transform="translate(297.227 578.819)" fill="#373e44"/>
    <path id="Path_37" data-name="Path 37" d="M103.28,200.91a8.418,8.418,0,0,1,.658,1.82A8.416,8.416,0,0,0,103.28,200.91Z" transform="translate(296.681 577.153)" fill="#373e44"/>
    <path id="Path_38" data-name="Path 38" d="M104.017,202.058a11.049,11.049,0,0,0-1.007-1.588h0A8.466,8.466,0,0,1,104.017,202.058Z" transform="translate(295.905 575.889)" fill="#373e44"/>
    <path id="Path_39" data-name="Path 39" d="M114.022,207.477a34.373,34.373,0,0,1-3.911-3.95c-2.827-3.137-5.964-6.583-10.185-7.706a6.062,6.062,0,0,1-1.588,3.137,6.588,6.588,0,0,1-2.478,1.51,2.365,2.365,0,0,0,1.162.31c3.33,0,6.274,3.214,9.1,6.39a37.431,37.431,0,0,0,4.686,4.608,30.412,30.412,0,0,0,4.531,2.633,19.285,19.285,0,0,1,3.1,1.82,20.623,20.623,0,0,1,.116-6.2c-.271-.116-.5-.271-.775-.387A27.8,27.8,0,0,1,114.022,207.477Z" transform="translate(275.366 562.531)" fill="#373e44"/>
    <path id="Path_40" data-name="Path 40" d="M95.45,198.383a2.677,2.677,0,0,0,1.51,2.4,6.3,6.3,0,0,0,2.478-1.51,5.928,5.928,0,0,0,1.588-3.137,11.685,11.685,0,0,0-2.9-.426A2.652,2.652,0,0,0,95.45,198.383Z" transform="translate(274.189 562.215)" fill="#373e44"/>
    <path id="Path_41" data-name="Path 41" d="M106.675,196.27c-.7.736-1.355,1.472-1.975,2.169C105.358,197.7,105.978,197.006,106.675,196.27Z" transform="translate(300.76 563.824)" fill="#373e44"/>
    <path id="Path_42" data-name="Path 42" d="M103.107,199.88c-.039.31-.039.581-.077.891C103.069,200.461,103.069,200.19,103.107,199.88Z" transform="translate(295.963 574.194)" fill="#373e44"/>
    <path id="Path_43" data-name="Path 43" d="M103.677,198.76c-.116.31-.271.581-.387.891A6.183,6.183,0,0,1,103.677,198.76Z" transform="translate(296.71 570.977)" fill="#373e44"/>
    <path id="Path_44" data-name="Path 44" d="M104.082,198.21c-.194.31-.349.62-.542.929C103.695,198.83,103.888,198.52,104.082,198.21Z" transform="translate(297.428 569.397)" fill="#373e44"/>
    <path id="Path_45" data-name="Path 45" d="M103.352,199.31c-.077.271-.155.581-.232.891A7.541,7.541,0,0,1,103.352,199.31Z" transform="translate(296.221 572.557)" fill="#373e44"/>
    <path id="Path_46" data-name="Path 46" d="M104.6,197.65c-.232.349-.5.7-.736,1.007C104.092,198.308,104.325,198,104.6,197.65Z" transform="translate(298.347 567.788)" fill="#373e44"/>
    <path id="Path_47" data-name="Path 47" d="M105.257,197.06c-.349.426-.7.813-1.007,1.2C104.56,197.873,104.908,197.447,105.257,197.06Z" transform="translate(299.467 566.093)" fill="#373e44"/>
    <path id="Path_48" data-name="Path 48" d="M103.01,200.47Z" transform="translate(295.905 575.889)" fill="#373e44"/>
    <path id="Path_49" data-name="Path 49" d="M101.68,201.09a5.252,5.252,0,0,0,.077.775,2.715,2.715,0,0,0,1.7,2.091A4.484,4.484,0,0,0,101.68,201.09Z" transform="translate(292.085 577.67)" fill="#373e44"/>
    <path id="Path_50" data-name="Path 50" d="M103.01,200.47Z" transform="translate(295.905 575.889)" fill="#373e44"/>
    <path id="Path_51" data-name="Path 51" d="M101.81,205.715a4.484,4.484,0,0,1,1.781,2.866,2.673,2.673,0,0,0,.968.155c.155,0,.31-.039.387-.039a2.684,2.684,0,0,0,2.246-3.1,15.677,15.677,0,0,1-.194-2.324h0a15.172,15.172,0,0,0-5.034-3.8A19.706,19.706,0,0,0,101.81,205.715Z" transform="translate(291.955 573.045)" fill="#373e44"/>
    <path id="Path_52" data-name="Path 52" d="M158.752,81.9c-.077.387-.155.736-.232,1.084C158.6,82.636,158.675,82.287,158.752,81.9Z" transform="translate(455.363 235.286)" fill="#373e44"/>
    <path id="Path_53" data-name="Path 53" d="M160.085,78.79c-.387,3.253-.852,6.428-1.355,9.178C159.233,85.218,159.7,82.043,160.085,78.79Z" transform="translate(455.966 226.352)" fill="#373e44"/>
    <path id="Path_54" data-name="Path 54" d="M159.341,78.13c-.077.852-.155,1.7-.271,2.556C159.186,79.834,159.264,78.982,159.341,78.13Z" transform="translate(456.943 224.456)" fill="#373e44"/>
    <path id="Path_55" data-name="Path 55" d="M159.15,88.423a74.545,74.545,0,0,0,.271-13.9A77.991,77.991,0,0,1,159.15,88.423Z" transform="translate(457.173 214.086)" fill="#373e44"/>
    <path id="Path_56" data-name="Path 56" d="M158.9,81.32c-.077.465-.194.929-.271,1.394C158.707,82.249,158.824,81.823,158.9,81.32Z" transform="translate(455.679 233.62)" fill="#373e44"/>
    <path id="Path_57" data-name="Path 57" d="M159.21,74.75a1.938,1.938,0,0,0,.271-.31,1.94,1.94,0,0,1-.271.31Z" transform="translate(457.345 213.856)" fill="#373e44"/>
    <path id="Path_58" data-name="Path 58" d="M159.21,74.556a.29.29,0,0,0,.039.194h0a1.938,1.938,0,0,0,.271-.31h0C159.4,74.479,159.287,74.479,159.21,74.556Z" transform="translate(457.345 213.856)" fill="#373e44"/>
    <path id="Path_59" data-name="Path 59" d="M158.58,64.012a.491.491,0,0,0,.039-.232h-.039A.244.244,0,0,1,158.58,64.012Z" transform="translate(455.535 183.235)" fill="#373e44"/>
    <path id="Path_60" data-name="Path 60" d="M159.638,74.35a2.5,2.5,0,0,1-.349.31A2.5,2.5,0,0,0,159.638,74.35Z" transform="translate(457.575 213.598)" fill="#373e44"/>
    <path id="Path_61" data-name="Path 61" d="M159.647,73.95a1.13,1.13,0,0,1-.077.349A1.129,1.129,0,0,0,159.647,73.95Z" transform="translate(458.379 212.449)" fill="#373e44"/>
    <path id="Path_62" data-name="Path 62" d="M158.559,62.6c0-.039,0-.039-.039-.039a.038.038,0,0,1,.039.039Z" transform="translate(455.363 179.73)" fill="#373e44"/>
    <path id="Path_63" data-name="Path 63" d="M159.692,74.16c-.077.116-.155.271-.232.387A3.408,3.408,0,0,0,159.692,74.16Z" transform="translate(458.063 213.052)" fill="#373e44"/>
    <path id="Path_64" data-name="Path 64" d="M158.731,63c0-.039,0-.039-.039-.039-.078-.194-.155-.349-.232-.542A2.021,2.021,0,0,0,158.731,63Z" transform="translate(455.191 179.328)" fill="#373e44"/>
    <path id="Path_66" data-name="Path 66" d="M158.995,63.035a2.629,2.629,0,0,1-.465-.465h0A2.63,2.63,0,0,0,158.995,63.035Z" transform="translate(455.392 179.759)" fill="#373e44"/>
    <path id="Path_67" data-name="Path 67" d="M158.46,62.611v0Z" transform="translate(455.191 179.098)" fill="#373e44"/>
    <path id="Path_68" data-name="Path 68" d="M158.45,63.082c0-.31.039-.7.077-1.162C158.489,62.385,158.45,62.772,158.45,63.082Z" transform="translate(455.162 177.892)" fill="#373e44"/>
    <path id="Path_70" data-name="Path 70" d="M158.53,62.57Z" transform="translate(455.392 179.759)" fill="#373e44"/>
  </g>
</svg>
